<?xml version='1.0' encoding='UTF-8' standalone='no'?>
<svg xmlns:inkscape="http://www.inkscape.org/namespaces/inkscape" xmlns:sodipodi="http://sodipodi.sourceforge.net/DTD/sodipodi-0.dtd" xmlns="http://www.w3.org/2000/svg" xmlns:svg="http://www.w3.org/2000/svg" version="1.0" width="476.894547pt" height="398.160316pt" viewBox="0 0 476.894547 398.160316" preserveAspectRatio="xMidYMid meet" id="svg26" sodipodi:docname="spaghettichef-icon-4.svg" inkscape:version="1.2.2 (b0a8486541, 2022-12-01)">
  <defs id="defs30"/>
  <sodipodi:namedview id="namedview28" pagecolor="#ffffff" bordercolor="#000000" borderopacity="0.25" inkscape:showpageshadow="2" inkscape:pageopacity="0.0" inkscape:pagecheckerboard="0" inkscape:deskcolor="#d1d1d1" inkscape:document-units="pt" showgrid="false" inkscape:zoom="1.4232428" inkscape:cx="317.5846" inkscape:cy="269.45507" inkscape:window-width="1854" inkscape:window-height="1011" inkscape:window-x="0" inkscape:window-y="0" inkscape:window-maximized="1" inkscape:current-layer="svg26" showguides="true">
    <sodipodi:guide position="444.36954,93.082733" orientation="0,-1" id="guide25686" inkscape:locked="false"/>
  </sodipodi:namedview>
  <metadata id="metadata2">
Created by potrace 1.16, written by Peter Selinger 2001-2019
</metadata>
  <g id="body-with-printer" inkscape:label="body-with-printer">
    <path id="body-rectangle" style="display:inline;stroke-width:3.18659" inkscape:label="body-rectangle" d="m 168.36649,235.95198 h 156.173 c 25.95596,0 46.85191,20.89595 46.85191,46.85191 v 72.74678 c 0,25.95595 -20.89595,46.8519 -46.85191,46.8519 h -156.173 c -25.95596,0 -46.85191,-20.89595 -46.85191,-46.8519 v -72.74678 c 0,-25.95596 20.89595,-46.85191 46.85191,-46.85191 z"/>
    <g id="printer" inkscape:label="printer">
      <path fill="#e8edf5" d="m 191.44537,270.16736 h 113.27694 v 32.89543 H 191.44537 Z" id="printer-papier-top" style="display:inline;stroke-width:3.47827" inkscape:label="printer-papier-top"/>
      <path fill="#8fd18f" d="m 179.30856,300.07229 h 137.55056 a 20.228023,14.952467 0 0 1 20.22802,14.95247 v 38.87641 h -178.0066 v -38.87641 a 20.228023,14.952467 0 0 1 20.22802,-14.95247 z" id="printer-body" style="display:inline;fill:#0066ff;fill-opacity:1;stroke-width:3.47827" inkscape:label="printer-body"/>
      <path fill="#18212f" d="m 191.44537,332.96772 h 113.27694 v 44.8574 H 191.44537 Z" id="printer-papier-card" style="display:inline;stroke-width:3.47827" inkscape:label="printer-papier-card"/>
      <path fill="#e8edf5" d="m 207.62779,344.92969 h 80.9121 v 20.93346 h -80.9121 z" id="printer-papier" style="display:inline;stroke-width:3.47827" inkscape:label="printer-papier"/>
      <path id="printer-button" style="display:inline;fill:#18212f;stroke-width:3.47827" d="m 320.90473,318.01526 a 12.136814,8.9714804 0 0 1 -12.13682,8.97148 12.136814,8.9714804 0 0 1 -12.13681,-8.97148 12.136814,8.9714804 0 0 1 12.13681,-8.97148 12.136814,8.9714804 0 0 1 12.13682,8.97148 z" inkscape:label="printer-button"/>
    </g>
  </g>
  <path d="m 164.04607,221.42194 c -10.4,1.6 -19,4.4 -20.4,6.7 -0.6,1 -0.6,3.3 0,6.5 0.8,4.2 1.4,5 4.7,6.6 4.1,2.1 21,5 38.2,6.7 17.79999,1.8 79.39999,2.4 101.89999,1.1 28.99999,-1.7 50.69999,-4.7 56.69999,-7.7 3.1,-1.6 5.8,-10.7 3.7,-13.1 -2.7,-3.3 -12.6,-6.1 -27.6,-7.8 -5.8,-0.6 -7.3,0.6 -5.3,4.4 1,1.8 0.6,2.4 -3,5.1 -2.3,1.6 -3.8,3 -3.3,3.1 4.6,0.4 14.5,-0.5 16.9,-1.6 2.7,-1.1 3.7,-1 6.6,0.3 l 3.4,1.5 -4.3,1.3 c -14,4.3 -91.19999,6.9 -129.29999,4.4 -21.29999,-1.3 -40.29999,-3.4 -43.89999,-4.8 -2.5,-0.9 -2.5,-1 1.3,-2.5 3.3,-1.4 4.1,-1.4 7.2,-0.1 4.4,1.8 19,1.9 16.1,0.1 -1,-0.7 -3,-2.1 -4.4,-3.3 -2.2,-1.8 -2.3,-2.3 -1.2,-4.3 1,-1.9 1,-2.5 -0.1,-3.2 -1.8,-1.1 -3.4,-1 -13.9,0.6 z" id="body-colar" style="display:inline;stroke-width:0.1" inkscape:label="body-colar"/>
  <g id="head" inkscape:label="head">
    <path id="face" style="display:inline;fill:#ff6600;stroke:#000000;stroke-width:0.803195;stroke-linecap:square" inkscape:label="face" d="M 332.986 199.98 C 332.986 213.22 323.843 225.917 307.567 235.279 C 291.291 244.641 269.216 249.901 246.198 249.901 C 223.18 249.901 201.105 244.641 184.829 235.279 C 168.553 225.917 159.409 213.22 159.409 199.98 C 159.409 186.74 168.553 174.042 184.829 164.68 C 201.105 155.318 223.18 150.059 246.198 150.059 C 269.216 150.059 291.291 155.318 307.567 164.68 C 323.843 174.042 332.986 186.74 332.986 199.98 Z"/>
    <path d="M 204.019 175.968 C 203.219 176.268 201.019 177.868 199.319 179.568 C 196.519 182.168 196.019 183.368 196.019 187.268 C 196.019 192.468 197.819 195.568 202.019 197.768 C 208.619 201.168 216.719 197.868 219.019 190.768 C 220.019 187.768 219.919 186.668 218.319 183.568 C 215.519 177.768 208.619 174.168 204.019 175.968 Z" id="eye-left" inkscape:label="eye-left" style="stroke-width:0.1"/>
    <path d="M 281.519 176.268 C 278.819 177.368 274.419 182.268 273.519 185.068 C 271.719 190.968 278.219 199.268 284.619 199.268 C 298.019 199.268 301.719 181.768 289.419 176.668 C 285.719 175.068 284.419 175.068 281.519 176.268 Z" id="eye-right" inkscape:label="eye-right" style="stroke-width:0.1"/>
    <path d="M 226.219 210.468 C 220.519 216.168 235.219 225.968 248.019 225.068 C 258.619 224.268 269.119 217.468 267.519 212.368 C 266.719 209.668 262.319 208.568 259.619 210.268 C 251.019 215.768 243.219 216.268 235.819 211.968 C 230.719 209.068 228.119 208.568 226.219 210.468 Z" id="mouth" inkscape:label="mouth" style="stroke-width:0.1"/>
    <g id="hat" inkscape:label="hat">
      <path style="display:inline;fill:#ffffff;fill-opacity:1;fill-rule:nonzero;stroke:#000000;stroke-width:0.507211;stroke-linecap:square;stroke-opacity:1" d="M 194.34 149.086 C 193.167 142.413 191.505 122.241 192.068 121.508 C 192.308 121.195 194.217 120.314 196.311 119.551 C 200.64 117.972 207.34 113.921 212.441 109.8 C 217.69 105.559 224.381 95.9926 226.558 89.6156 C 227.343 87.3172 227.351 86.9607 226.643 85.8115 C 225.79 84.4267 224.247 82.9776 221.196 80.6967 C 216.977 77.5425 213.943 79.3462 214.156 84.8817 C 214.345 89.7786 212.428 93.6164 207.129 98.9487 C 199.439 106.687 187.439 111.209 176.511 110.485 C 152.119 108.87 134.802 86.0155 140.713 63.2407 C 142.609 55.9355 144.817 52.2348 150.852 46.2491 C 153.806 43.32 157.528 40.1577 159.124 39.2219 C 168.174 33.9154 177.567 32.4845 187.807 34.8525 C 192.194 35.867 194.709 37.2631 195.955 39.3753 C 197.405 41.8324 199.857 43.2631 202.322 43.0904 C 204.231 42.9567 204.381 42.8046 206.96 38.3873 C 212.027 29.7076 213.047 28.2843 217.112 24.2146 C 221.883 19.4386 227.455 15.9235 233.917 13.6138 C 238.222 12.0751 238.686 12.0158 246.252 12.0391 C 255.205 12.0666 257.551 12.5737 264.225 15.9242 C 269.573 18.6096 272.184 20.4195 276.1 24.1564 C 280.388 28.2488 282.363 31.0311 285.782 37.7955 C 288.003 42.1892 288.85 43.4236 289.558 43.2998 C 290.061 43.2121 292.035 42.1378 293.947 40.9126 C 302.474 35.4469 307.259 33.8754 315.233 33.9222 C 330.142 34.0096 343.955 42.633 350.008 55.6325 C 352.766 61.5539 353.476 64.9813 353.476 72.3704 C 353.476 79.8477 352.725 83.3969 349.999 88.8111 C 344.959 98.8178 336.794 105.557 325.612 108.938 C 321.711 110.118 320.13 110.317 314.472 110.343 C 306.457 110.38 302.881 109.57 295.705 106.094 C 286.623 101.694 281.727 96.4523 276.023 85.0232 C 274.762 82.4973 273.367 80.1289 272.923 79.76 C 271.533 78.6062 267.263 79.3287 265.502 81.0157 C 263.772 82.6739 263.648 83.9198 264.822 87.8751 C 266.755 94.3838 271.023 101.053 277.145 107.128 C 282.573 112.515 287.469 115.786 294.372 118.639 C 297.321 119.858 300.14 121.222 300.636 121.671 C 301.813 122.736 301.796 124.895 300.524 136.026 C 299.158 147.983 298.945 149.498 298.544 150.147 C 298.307 150.532 295.624 150.091 289.852 148.72 C 272.839 144.678 262.843 143.467 246.506 143.467 C 230.195 143.467 220.535 144.649 203.617 148.716 C 198.998 149.826 195.086 150.734 194.924 150.734 C 194.762 150.734 194.499 149.993 194.34 149.086 Z" id="hat2" inkscape:label="hat2"/>
      <path d="M 235.519 1.26848 C 229.619 2.46848 221.419 5.96848 216.619 9.16848 C 212.219 12.1685 203.119 21.4685 201.319 24.7685 C 200.219 26.6685 200.119 26.6685 194.319 24.8685 C 176.019 18.9685 156.519 23.6685 142.919 37.1685 C 130.119 50.0685 125.119 67.7685 129.519 84.7685 C 134.519 103.768 151.419 118.568 171.619 121.468 L 179.819 122.668 L 180.919 133.168 C 183.619 158.768 184.419 164.768 185.019 165.568 C 185.319 165.968 187.619 165.568 190.119 164.768 C 210.019 157.668 226.319 154.868 247.519 154.968 C 261.919 154.968 266.519 155.468 277.319 157.668 C 284.319 159.068 294.019 161.668 298.719 163.268 C 303.519 164.968 307.719 165.968 308.019 165.568 C 308.719 164.668 311.619 143.468 312.619 131.568 C 313.019 127.668 313.519 124.068 313.919 123.568 C 314.219 123.068 318.119 122.068 322.519 121.468 C 353.119 116.768 372.319 86.8685 363.319 57.7685 C 358.019 40.7685 342.719 26.8685 325.319 23.1685 C 317.919 21.6685 306.219 22.5685 298.819 25.1685 L 293.119 27.1685 L 291.119 23.8685 C 287.719 18.4685 277.819 9.66848 271.219 6.36848 C 260.419 0.96848 246.919 -1.03152 235.519 1.26848 Z M 264.419 15.5685 C 274.019 20.0685 281.719 27.8685 285.619 36.7685 C 287.219 40.3685 288.819 43.2685 289.219 43.2685 C 289.719 43.2685 292.319 41.6685 295.119 39.7685 C 305.319 32.7685 317.019 31.5685 329.319 36.2685 C 344.519 41.9685 354.019 55.8685 354.019 72.2685 C 354.019 81.0685 351.919 87.6685 347.019 94.4685 C 332.519 114.868 301.219 116.468 283.619 97.8685 C 281.519 95.5685 278.319 90.4685 276.419 86.4685 C 273.419 79.9685 272.819 79.2685 270.219 79.2685 C 268.619 79.2685 266.519 80.1685 265.519 81.2685 C 263.919 83.0685 263.819 83.7685 265.019 87.5685 C 269.019 101.168 282.119 114.368 296.419 119.168 C 300.519 120.568 301.619 121.468 301.819 123.468 C 302.119 125.868 299.419 150.268 298.719 150.868 C 298.619 151.068 296.019 150.568 293.019 149.768 C 263.119 141.768 233.419 141.368 204.519 148.768 C 199.119 150.168 194.519 151.168 194.419 150.968 C 193.819 150.368 191.019 122.068 191.519 121.268 C 191.819 120.868 193.219 120.168 194.719 119.768 C 200.119 118.468 210.419 111.868 215.619 106.568 C 220.519 101.468 227.019 90.2685 227.019 87.0685 C 227.019 85.3685 219.719 79.2685 217.719 79.2685 C 215.219 79.2685 213.719 82.0685 214.419 85.4685 C 215.619 91.5685 206.819 102.168 196.519 106.868 C 180.919 114.068 163.819 111.468 151.519 100.168 C 143.019 92.3685 138.319 80.5685 139.319 69.7685 C 140.319 59.5685 143.519 52.5685 150.419 45.7685 C 161.919 34.3685 175.719 30.7685 190.919 35.3685 C 193.819 36.2685 195.519 37.3685 196.119 38.9685 C 197.119 41.5685 201.119 43.7685 203.419 42.9685 C 204.219 42.6685 206.419 39.3685 208.219 35.6685 C 212.319 27.3685 219.419 20.1685 227.119 16.2685 C 235.219 12.0685 239.219 11.2685 248.819 11.6685 C 255.719 11.9685 258.219 12.5685 264.419 15.5685 Z" id="hat1" inkscape:label="hat1" style="stroke-width:0.1"/>
    </g>
  </g>
  <g id="arm-right" inkscape:label="arm-right">
    <path d="m 369.74609,276.12194 6.4,-0.7 c 28.2,-3 48.6,-16.7 59.4,-39.7 5.3,-11.3 6.6,-20.2 6.3,-41.8 l -0.3,-18.5 -7.2,-0.6 c -5.7,-0.4 -7.8,-1.1 -10.7,-3.3 -7,-5.3 -7.1,-5.8 -6.9,-36.4 0.2,-15.1 0.5,-27.8 0.9,-28.3 0.3,-0.6 2,-0.9 3.7,-0.7 l 3.2,0.3 0.5,27.3 0.5,27.4 2.8,2.4 c 2.7,2.3 3.4,2.4 18.3,2.4 9.2,0 16.4,-0.4 17.6,-1.1 4.2,-2.3 4.8,-6.2 4.7,-32.4 -0.1,-14.8 0.3,-25.1 0.9,-25.7 0.5,-0.5 2.2,-0.8 3.8,-0.6 l 2.9,0.3 0.3,27 c 0.1,14.8 0,28 -0.3,29.2 -0.7,3 -6.1,9 -9.6,10.9 -1.6,0.8 -5.6,1.4 -9.4,1.4 h -6.5 v 22.2 c 0,18.5 -0.4,23.5 -1.9,29.3 -3.6,13.8 -9,23.3 -19.5,34.4 -13.8,14.5 -36.64352,22.69671 -60.34352,25.09671" id="arm-right-2" style="display:inline;fill:#000000;stroke:none;stroke-width:0.1" inkscape:label="arm-right" sodipodi:nodetypes="ccccccccccccccsccscccccscsccc"/>
    <g id="fork" inkscape:label="fork">
      <path d="m 430.54609,106.92194 c -1,1.6 -0.6,52.3 0.4,53.3 0.5,0.5 2.1,0.7 3.7,0.5 l 2.9,-0.3 v -27 -27 l -3.2,-0.3 c -1.7,-0.2 -3.4,0.2 -3.8,0.8 z" id="fork-2" inkscape:label="fork-2" style="display:inline;fill:#000000;stroke:none;stroke-width:0.1"/>
      <path d="m 443.54609,107.22194 c -0.3,0.7 -0.4,12.9 -0.3,27.2 l 0.3,26 h 3.5 3.5 l 0.3,-26.4 c 0.2,-20.5 -0.1,-26.6 -1,-27.3 -2,-1.2 -5.8,-0.9 -6.3,0.5 z" id="fork-3" inkscape:label="fork-3" style="display:inline;fill:#000000;stroke:none;stroke-width:0.1"/>
      <path d="m 456.24609,108.12194 c -0.4,1.3 -0.5,13.5 -0.2,27.3 l 0.5,25 2.9,0.3 c 1.6,0.2 3.2,-0.2 3.7,-1 0.5,-0.7 0.9,-12.8 0.9,-26.9 0,-22.5 -0.2,-25.8 -1.6,-26.3 -3.1,-1.2 -5.5,-0.6 -6.2,1.6 z" id="fork-4" inkscape:label="fork-4" style="display:inline;fill:#000000;stroke:none;stroke-width:0.1"/>
    </g>
  </g>
  <g id="arm-left" inkscape:label="arm-left">
    <path d="m 120.84609,275.92194 h -2.4 c -1.3,0 -7,-0.9 -12.6,-2 -18.800004,-3.6 -35.200004,-13.9 -44.900004,-28.2 -9.3,-13.6 -11.821028,-31.38052 -11.9,-47.8 -0.01989,-4.1344 -0.89075,-8.29299 2.880486,-12.06423 3.959798,-3.9598 13.919514,-3.93577 13.919514,-3.93577 23.3,0 21.2,3.1 21.2,-31.9 0,-33.7 1,-31.3 -14.3,-32.1 -10,-0.5 -10.2,-0.5 -9.9,-2.9 0.2,-1.4 -0.5,-3.3 -1.9,-4.7 -2.2,-2.3 -2.7,-2.4 -17.5,-2.4 h -15.3 l -2.1,2.7 c -1.4,1.8 -1.9,3.5 -1.5,5 0.5,2.3 0.5,2.3 -9.8,2.3 -15.6,0 -14.7,-2 -14.7,32.1 0,34.9 -2.1,31.9 21.8,31.9 9.5,0 17.2,0.3 17.3,0.7 0,0.5 0.3,9 0.5,19 0.5,20.7 2.1,28.8 7.7,39.9 12.5,24.8 35.5,40 65.800004,43.5 l 10.6,1.2 m -75.900004,-168.6 c -2.1,0.2 -5.5,0.2 -7.5,0 -2.1,-0.2 -0.4,-0.4 3.7,-0.4 4.1,0 5.8,0.2 3.8,0.4 z m 30.7,17.3 c 0,6.9 -0.2,7.5 -2,7.2 -5.9,-0.8 -8.6,-0.5 -10.4,1.2 -1.9,1.8 -2,1.7 -3.4,-1.5 -3,-7.1 -9.4,-11.6 -17.7,-12.6 -10.7,-1.3 -22,8.2 -22,18.5 0,4.3 -0.1,4.3 -2.9,3.7 -6.1,-1.3 -10.3,1.9 -6.9,5.3 1.7,1.7 6.4,1.5 8.1,-0.3 1.3,-1.3 1.6,-1.1 2.5,1.3 2.5,7.3 11.3,13.2 19.5,13.2 8.6,0 15.1,-4 18.9,-11.5 1.1,-2.2 2.2,-4.1 2.3,-4.3 0.1,-0.2 1.8,0.5 3.8,1.4 3.2,1.5 3.7,1.5 6.6,0.1 4,-2 4.3,-1.4 3.9,8.4 l -0.3,7.4 -34.7,0.3 -34.8,0.2 v -23 -23 l 34.8,0.2 34.7,0.3 z m -30,4.4 c 8.5,3.6 8.7,16.8 0.4,21.2 -10.4,5.4 -21.2,-6.4 -15.2,-16.7 1.8,-2.9 6.5,-5.8 9.6,-5.9 1,0 3.3,0.6 5.2,1.4 z" id="arm-left-2" style="display:inline;fill:#000000;stroke:none;stroke-width:0.1" inkscape:label="arm-left" sodipodi:nodetypes="csccassscccscscssscccccccscsccccscsccscsccccccccccsccccc"/>
    <path style="display:inline;opacity:0.65413;fill:#0066ff;fill-opacity:1;fill-rule:nonzero;stroke:#000000;stroke-width:0.507211;stroke-linecap:square;stroke-opacity:1" d="M 9.3833955,149.87209 V 126.89152 L 28.7842,127.22677 c 10.670443,0.18439 26.191087,0.33558 34.49032,0.33598 l 15.089515,7.2e-4 -0.0067,5.95972 c -0.01013,8.70322 0.3105,8.21206 -5.281187,8.09034 -4.333465,-0.0943 -4.829233,-1.7e-4 -6.773909,1.28647 l -2.098234,1.38825 -1.028982,-2.32619 c -3.795818,-8.58112 -11.725844,-13.31042 -21.42058,-12.77478 -5.215026,0.28814 -9.408491,2.22584 -13.330244,6.15961 -3.383214,3.39357 -4.875791,6.56962 -5.516075,11.73762 l -0.514896,4.15594 -4.164777,-0.0458 c -4.728023,-0.052 -6.308757,0.773 -6.308757,3.29281 0,2.34868 2.178897,3.65148 5.687112,3.40044 1.813697,-0.12979 3.266513,-0.54134 3.884143,-1.10029 0.960052,-0.86883 1.037894,-0.7955 2.883417,2.71654 5.539045,10.54082 18.875654,14.63691 29.691366,9.11915 3.077126,-1.56983 6.185145,-4.94502 8.592189,-9.33078 1.648135,-3.00299 2.325266,-3.81685 2.961765,-3.55985 0.453827,0.18324 2.03638,0.80412 3.51678,1.37973 l 2.691635,1.04655 2.798311,-1.15983 c 2.158998,-0.89486 2.934611,-1.02213 3.394893,-0.55708 0.417517,0.42184 0.550792,2.83387 0.444045,8.03604 -0.08389,4.08831 -0.198015,7.47733 -0.253605,7.53117 -0.05558,0.0539 -15.564652,0.26563 -34.464587,0.47067 L 9.3835905,172.85269 Z M 21.3259,146.60692 c 2.491159,-2.49117 0.835632,-4.78612 -3.77197,-5.22885 -3.520172,-0.33825 -5.634481,0.8527 -5.634481,3.17377 0,2.2292 1.706313,3.25124 5.475569,3.27974 2.191449,0.0166 2.915102,-0.20888 3.930882,-1.22466 z" id="blau" inkscape:label="blau"/>
    <path d="m 13.846086,142.02194 c -4.7,2.6 -0.1,7 5.7,5.5 2.4,-0.6 3.6,-3.9 1.8,-4.9 -2.1,-1.2 -6,-1.5 -7.5,-0.6 z" id="camera" style="display:inline;stroke-width:0.1" inkscape:label="camera"/>
    <path style="display:inline;fill:#ff6600;fill-opacity:1;fill-rule:nonzero;stroke:#000000;stroke-width:0.507211;stroke-linecap:square;stroke-opacity:1" d="M 38.7658 160.152 C 31.6424 156.544 30.1266 147.167 35.8333 142.012 C 40.4878 137.807 44.4109 137.341 49.4852 140.391 C 57.4972 145.207 55.8892 158.291 46.9564 160.968 C 43.924 161.876 41.741 161.659 38.7658 160.152 Z" id="lense" inkscape:label="lense"/>
  </g>
</svg>
