<?xml version="1.0" encoding="UTF-8" standalone="no"?>
<svg
   version="1.0"
   width="476.894547pt"
   height="398.160316pt"
   viewBox="0 0 476.894547 398.160316"
   preserveAspectRatio="xMidYMid meet"
   id="svg26"
   sodipodi:docname="spaghettichef-icon.svg"
   inkscape:version="1.2.2 (b0a8486541, 2022-12-01)"
   xmlns:inkscape="http://www.inkscape.org/namespaces/inkscape"
   xmlns:sodipodi="http://sodipodi.sourceforge.net/DTD/sodipodi-0.dtd"
   xmlns="http://www.w3.org/2000/svg"
   xmlns:svg="http://www.w3.org/2000/svg">
  <defs
     id="defs30" />
  <sodipodi:namedview
     id="namedview28"
     pagecolor="#ffffff"
     bordercolor="#000000"
     borderopacity="0.25"
     inkscape:showpageshadow="2"
     inkscape:pageopacity="0.0"
     inkscape:pagecheckerboard="0"
     inkscape:deskcolor="#d1d1d1"
     inkscape:document-units="pt"
     showgrid="false"
     inkscape:zoom="1.4786758"
     inkscape:cx="318.52825"
     inkscape:cy="292.49144"
     inkscape:window-width="1854"
     inkscape:window-height="1011"
     inkscape:window-x="0"
     inkscape:window-y="0"
     inkscape:window-maximized="1"
     inkscape:current-layer="svg26" />
  <metadata
     id="metadata2">
Created by potrace 1.16, written by Peter Selinger 2001-2019
</metadata>
  <ellipse
     style="opacity:0.74803545;fill:#ff9919;fill-opacity:1;fill-rule:nonzero;stroke:#000000;stroke-width:0.803195;stroke-linecap:square;stroke-opacity:1"
     id="path19383"
     cx="248.76796"
     cy="197.07707"
     rx="86.788643"
     ry="42.190758" />
  <g
     transform="matrix(0.1,0,0,-0.1,-10.953914,415.92194)"
     fill="#000000"
     stroke="none"
     id="g24">
    <path
       d="M2485 4150 c-59 -12 -141 -47 -189 -79 -44 -30 -135 -123 -153 -156 -11 -19 -12 -19 -70 -1 -183 59 -378 12 -514 -123 -128 -129 -178 -306 -134 -476 50 -190 219 -338 421 -367 l82 -12 11 -105 c27 -256 35 -316 41 -324 3 -4 26 0 51 8 199 71 362 99 574 98 144 0 190 -5 298 -27 70 -14 167 -40 214 -56 48 -17 90 -27 93 -23 7 9 36 221 46 340 4 39 9 75 13 80 3 5 42 15 86 21 306 47 498 346 408 637 -53 170 -206 309 -380 346 -74 15 -191 6 -265 -20 l-57 -20 -20 33 c-34 54 -133 142 -199 175 -108 54 -243 74 -357 51z m289 -143 c96 -45 173 -123 212 -212 16 -36 32 -65 36 -65 5 0 31 16 59 35 102 70 219 82 342 35 152 -57 247 -196 247 -360 0 -88 -21 -154 -70 -222 -145 -204 -458 -220 -634 -34 -21 23 -53 74 -72 114 -30 65 -36 72 -62 72 -16 0 -37 -9 -47 -20 -16 -18 -17 -25 -5 -63 40 -136 171 -268 314 -316 41 -14 52 -23 54 -43 3 -24 -24 -268 -31 -274 -1 -2 -27 3 -57 11 -299 80 -596 84 -885 10 -54 -14 -100 -24 -101 -22 -6 6 -34 289 -29 297 3 4 17 11 32 15 54 13 157 79 209 132 49 51 114 163 114 195 0 17 -73 78 -93 78 -25 0 -40 -28 -33 -62 12 -61 -76 -167 -179 -214 -156 -72 -327 -46 -450 67 -85 78 -132 196 -122 304 10 102 42 172 111 240 115 114 253 150 405 104 29 -9 46 -20 52 -36 10 -26 50 -48 73 -40 8 3 30 36 48 73 41 83 112 155 189 194 81 42 121 50 217 46 69 -3 94 -9 156 -39z"
       id="path4" />
    <path
       d="M4286 3091 c-4 -5 -7 -132 -9 -283 -2 -306 -1 -311 69 -364 29 -22 50 -29 107 -33 l72 -6 3 -185 c3 -216 -10 -305 -63 -418 -108 -230 -312 -367 -594 -397 l-64 -7 8 105 c4 58 4 140 0 182 l-7 76 -42 24 c-23 14 -56 28 -73 31 -30 6 -31 5 -38 -35 -4 -27 -15 -47 -29 -56 -61 -40 -364 -87 -676 -105 -448 -25 -994 1 -1295 61 -135 27 -147 34 -164 92 -9 28 -20 47 -29 47 -32 0 -132 -53 -139 -74 -4 -11 -7 -94 -6 -183 l1 -163 -24 0 c-13 0 -70 9 -126 20 -188 36 -352 139 -449 282 -93 136 -119 242 -119 478 l0 160 168 0 c233 0 212 -31 212 319 0 337 10 313 -143 321 -100 5 -102 5 -99 29 2 14 -5 33 -19 47 -22 23 -27 24 -175 24 l-153 0 -21 -27 c-14 -18 -19 -35 -15 -50 5 -23 5 -23 -98 -23 -156 0 -147 20 -147 -321 0 -349 -21 -319 218 -319 95 0 172 -3 173 -7 0 -5 3 -90 5 -190 5 -207 21 -288 77 -399 125 -248 355 -400 658 -435 l106 -12 23 -74 c53 -174 197 -404 327 -523 82 -75 185 -150 276 -199 42 -24 77 -46 77 -51 0 -4 -11 -43 -25 -85 -25 -76 -25 -79 -8 -97 20 -19 171 -59 298 -79 102 -15 405 -15 510 0 134 19 291 61 310 81 16 18 15 23 -14 99 -17 44 -31 84 -31 89 0 4 21 18 48 31 160 77 362 257 462 411 94 143 117 189 158 316 l27 82 70 6 c237 24 413 102 551 247 105 111 159 206 195 344 15 58 19 108 19 293 l0 222 65 0 c38 0 78 6 94 14 35 19 89 79 96 109 3 12 4 144 3 292 l-3 270 -29 3 c-16 2 -33 -1 -38 -6 -6 -6 -10 -109 -9 -257 1 -262 -5 -301 -47 -324 -12 -7 -84 -11 -176 -11 -149 0 -156 1 -183 24 l-28 24 -5 274 -5 273 -32 3 c-17 2 -34 -1 -37 -7z m-3698 -108 c-21 -2 -55 -2 -75 0 -21 2 -4 4 37 4 41 0 58 -2 38 -4z m307 -173 c0 -69 -2 -75 -20 -72 -59 8 -86 5 -104 -12 -19 -18 -20 -17 -34 15 -30 71 -94 116 -177 126 -107 13 -220 -82 -220 -185 0 -43 -1 -43 -29 -37 -61 13 -103 -19 -69 -53 17 -17 64 -15 81 3 13 13 16 11 25 -13 25 -73 113 -132 195 -132 86 0 151 40 189 115 11 22 22 41 23 43 1 2 18 -5 38 -14 32 -15 37 -15 66 -1 40 20 43 14 39 -84 l-3 -74 -347 -3 -348 -2 0 230 0 230 348 -2 347 -3 0 -75z m-300 -44 c85 -36 87 -168 4 -212 -104 -54 -212 64 -152 167 18 29 65 58 96 59 10 0 33 -6 52 -14z m947 -1165 c212 -58 465 -82 933 -88 527 -7 869 20 1134 92 52 14 96 23 99 20 11 -11 -18 -234 -42 -328 -83 -317 -338 -609 -647 -743 -442 -190 -958 -82 -1286 269 -186 200 -303 475 -303 714 0 86 2 95 18 90 9 -2 52 -14 94 -26z m693 -1207 c188 -58 477 -58 679 2 27 8 55 14 61 14 10 0 39 -60 32 -67 -7 -7 -129 -34 -197 -43 -97 -14 -374 -14 -470 0 -112 16 -190 32 -195 40 -8 12 16 70 28 70 7 0 35 -7 62 -16z"
       id="path6" />
    <path
       d="M248 2739 c-47 -26 -1 -70 57 -55 24 6 36 39 18 49 -21 12 -60 15 -75 6z"
       id="path8" />
    <path
       d="M4415 3090 c-10 -16 -6 -523 4 -533 5 -5 21 -7 37 -5 l29 3 0 270 0 270 -32 3 c-17 2 -34 -2 -38 -8z"
       id="path10" />
    <path
       d="M4545 3087 c-3 -7 -4 -129 -3 -272 l3 -260 35 0 35 0 3 264 c2 205 -1 266 -10 273 -20 12 -58 9 -63 -5z"
       id="path12" />
    <path
       d="M4672 3078 c-4 -13 -5 -135 -2 -273 l5 -250 29 -3 c16 -2 32 2 37 10 5 7 9 128 9 269 0 225 -2 258 -16 263 -31 12 -55 6 -62 -16z"
       id="path14" />
    <path
       d="M2170 2403 c-8 -3 -30 -19 -47 -36 -28 -26 -33 -38 -33 -77 0 -52 18 -83 60 -105 66 -34 147 -1 170 70 10 30 9 41 -7 72 -28 58 -97 94 -143 76z"
       id="path16" />
    <path
       d="M2945 2400 c-27 -11 -71 -60 -80 -88 -18 -59 47 -142 111 -142 134 0 171 175 48 226 -37 16 -50 16 -79 4z"
       id="path18" />
    <path
       d="M2392 2058 c-57 -57 90 -155 218 -146 106 8 211 76 195 127 -8 27 -52 38 -79 21 -86 -55 -164 -60 -238 -17 -51 29 -77 34 -96 15z"
       id="path20" />
    <path
       d="M1750 1945 c-104 -16 -190 -44 -204 -67 -6 -10 -6 -33 0 -65 8 -42 14 -50 47 -66 41 -21 210 -50 382 -67 178 -18 794 -24 1019 -11 290 17 507 47 567 77 31 16 58 107 37 131 -27 33 -126 61 -276 78 -58 6 -73 -6 -53 -44 10 -18 6 -24 -30 -51 -23 -16 -38 -30 -33 -31 46 -4 145 5 169 16 27 11 37 10 66 -3 l34 -15 -43 -13 c-140 -43 -912 -69 -1293 -44 -213 13 -403 34 -439 48 -25 9 -25 10 13 25 33 14 41 14 72 1 44 -18 190 -19 161 -1 -10 7 -30 21 -44 33 -22 18 -23 23 -12 43 10 19 10 25 -1 32 -18 11 -34 10 -139 -6z"
       id="path22" />
  </g>
  <path
     style="opacity:0.93188048;fill:#00a1f4;fill-opacity:1;fill-rule:nonzero;stroke:#000000;stroke-width:0.676281;stroke-linecap:square;stroke-opacity:1"
     d="m 315.48498,492.22257 c -31.76099,-3.10667 -59.73001,-14.3505 -83.52067,-33.57617 -7.66032,-6.19044 -19.50363,-18.54981 -25.49358,-26.60442 -13.32811,-17.92216 -23.05002,-38.88734 -27.32831,-58.93315 -2.74021,-12.83919 -3.78126,-32.73827 -1.81559,-34.70394 0.29731,-0.29731 4.86341,0.64579 10.1469,2.09578 21.4127,5.87643 42.19765,9.00343 71.84795,10.8092 22.36037,1.3618 65.71465,2.21379 91.66804,1.80145 53.78276,-0.85449 81.93415,-3.79395 114.76823,-11.98363 5.84155,-1.45704 11.43736,-2.64916 12.43513,-2.64916 h 1.81414 l -0.46048,5.91746 c -0.59508,7.64722 -2.80067,23.03452 -4.51791,31.51911 -5.04244,24.91385 -19.91717,51.38524 -40.38655,71.87277 -25.16058,25.18288 -55.13802,39.80773 -89.94125,43.87888 -7.65571,0.89554 -22.79782,1.18361 -29.21605,0.55582 z"
     id="path4063"
     transform="scale(0.75)" />
  <path
     style="opacity:0.64465645;fill:#ffffff;fill-opacity:1;fill-rule:nonzero;stroke:#000000;stroke-width:0.676281;stroke-linecap:square;stroke-opacity:1"
     d="m 261.82306,198.31934 c -1.56366,-8.89734 -3.77965,-35.79307 -3.02962,-36.77071 0.32017,-0.41731 2.86618,-1.5918 5.65781,-2.60996 5.7722,-2.10523 14.70578,-7.50539 21.50687,-13.00042 6.99822,-5.6543 15.91978,-18.41023 18.82298,-26.91283 1.04637,-3.06452 1.05696,-3.53985 0.11297,-5.07211 -1.13752,-1.8464 -3.19527,-3.77858 -7.26293,-6.81973 -5.62514,-4.20559 -9.67023,-1.80075 -9.38585,5.57997 0.25159,6.52924 -2.30463,11.64631 -9.36953,18.75603 -10.25319,10.31824 -26.25415,16.34715 -40.82493,15.38217 -32.52258,-2.15385 -55.61202,-32.62645 -47.73046,-62.992933 2.52803,-9.740148 5.47261,-14.67453 13.51952,-22.655406 3.93784,-3.905522 8.90083,-8.121846 11.02886,-9.369609 12.06679,-7.075327 24.59077,-8.983163 38.24375,-5.825854 5.84941,1.3527 9.2031,3.214159 10.86476,6.030452 1.93297,3.276139 5.20205,5.183623 8.48923,4.953408 2.5454,-0.178265 2.74536,-0.381045 6.18375,-6.27075 6.75623,-11.572934 8.11559,-13.4707 13.5358,-18.897004 6.36089,-6.368028 13.79048,-11.054726 22.40644,-14.134322 5.74008,-2.051673 6.35921,-2.130713 16.44696,-2.099673 11.93789,0.03673 15.06537,0.712795 23.96356,5.180185 7.13157,3.580439 10.61278,5.993694 15.83357,10.976179 5.71754,5.456566 8.35119,9.166389 12.91007,18.185464 2.96122,5.858324 4.0903,7.504257 5.03456,7.339188 0.66949,-0.117035 3.30244,-1.549362 5.851,-3.182948 11.36953,-7.287688 17.74961,-9.382935 28.38143,-9.320593 19.87855,0.116563 38.29574,11.614374 46.36739,28.947071 3.6767,7.895172 4.62344,12.465072 4.62344,22.317266 0,9.969689 -1.00087,14.701949 -4.63628,21.920899 -6.71902,13.34221 -17.60641,22.32772 -32.51597,26.8359 -5.20117,1.57267 -7.309,1.8385 -14.853,1.87322 -10.68634,0.0492 -15.45425,-1.03038 -25.02239,-5.66563 -12.10895,-5.86614 -18.63755,-12.85527 -26.24289,-28.09411 -1.68079,-3.36779 -3.54089,-6.52571 -4.13357,-7.01759 -1.85357,-1.53832 -7.54606,-0.57496 -9.89387,1.67437 -2.30769,2.21092 -2.47238,3.87204 -0.90676,9.14583 2.57629,8.67828 8.26746,17.5703 16.43013,25.67083 7.23799,7.1829 13.76492,11.54413 22.96935,15.34791 3.93189,1.62486 7.69022,3.44421 8.35186,4.04298 1.56903,1.41995 1.54659,4.29829 -0.14921,19.13953 -1.82159,15.94226 -2.10488,17.96314 -2.63924,18.82774 -0.31714,0.51317 -3.89443,-0.074 -11.5902,-1.90232 -22.6839,-5.38918 -36.0116,-7.00442 -57.79484,-7.00442 -21.74814,0 -34.62777,1.57627 -57.18456,6.99856 -6.1586,1.48042 -11.37436,2.69168 -11.59058,2.69168 -0.21621,0 -0.56693,-0.98906 -0.77938,-2.19791 z"
     id="path7239"
     transform="scale(0.75)"
     inkscape:label="path7239" />
  <path
     style="opacity:0.65413;fill:#007fe1;fill-opacity:1;fill-rule:nonzero;stroke:#000000;stroke-width:0.676281;stroke-linecap:square;stroke-opacity:1"
     d="m 12.511194,199.82946 v -30.64077 l 25.86774,0.447 c 14.227257,0.24585 34.921449,0.44744 45.987093,0.44797 l 20.119353,9.6e-4 -0.009,7.9463 c -0.0135,11.60429 0.414,10.94941 -7.041582,10.78712 -5.777954,-0.12577 -6.438978,-2.3e-4 -9.031879,1.71529 l -2.797645,1.851 -1.371977,-3.10158 c -5.06109,-11.4415 -15.634458,-17.74723 -28.560773,-17.03304 -6.953368,0.38419 -12.544655,2.96779 -17.773658,8.21281 -4.510953,4.52476 -6.501056,8.75949 -7.354767,15.65016 l -0.686528,5.54126 -5.553036,-0.0611 c -6.304031,-0.0694 -8.411677,1.03067 -8.411677,4.39042 0,3.13157 2.905196,4.86864 7.582816,4.53391 2.418263,-0.17305 4.355351,-0.72178 5.178858,-1.46705 1.280069,-1.15844 1.383859,-1.06066 3.844556,3.62206 7.385394,14.05442 25.167539,19.51588 39.588488,12.15886 4.102834,-2.09311 8.24686,-6.59336 11.456252,-12.44104 2.197514,-4.00398 3.100355,-5.08913 3.94902,-4.74646 0.605102,0.24432 2.715173,1.07216 4.68904,1.83963 l 3.588847,1.3954 3.731081,-1.54644 c 2.878664,-1.19314 3.912814,-1.36284 4.526524,-0.74277 0.55669,0.56245 0.73439,3.77849 0.59206,10.71472 -0.11186,5.45108 -0.26402,9.96978 -0.33814,10.04156 -0.0741,0.0718 -20.75287,0.35418 -45.952783,0.62756 l -45.818023,0.49706 z m 15.923339,-4.35357 c 3.321546,-3.32155 1.114176,-6.38149 -5.029293,-6.9718 -4.693563,-0.45099 -7.512642,1.13693 -7.512642,4.2317 0,2.97226 2.275084,4.33498 7.300759,4.37298 2.921933,0.0221 3.886803,-0.27851 5.241176,-1.63288 z"
     id="path10760"
     transform="scale(0.75)" />
  <path
     style="opacity:1;fill:#ffff00;fill-opacity:1;fill-rule:nonzero;stroke:#000000;stroke-width:0.676281;stroke-linecap:square;stroke-opacity:1"
     d="m 51.687677,213.53566 c -9.497832,-4.81075 -11.518848,-17.31269 -3.909957,-24.18686 6.205972,-5.60673 11.436837,-6.22763 18.202538,-2.16063 10.682676,6.42156 8.538694,23.86688 -3.371728,27.43533 -4.04325,1.21139 -6.953907,0.92145 -10.920853,-1.08784 z"
     id="path13039"
     transform="scale(0.75)" />
  <path
     style="opacity:1;fill:#ffaf04;fill-opacity:0.96504343;fill-rule:nonzero;stroke:#000000;stroke-width:0.676281;stroke-linecap:square;stroke-opacity:1"
     d="m 53.794261,213.6524 c -5.454598,-2.36619 -8.810996,-6.41909 -9.834612,-11.87543 -1.377088,-7.34051 6.448747,-16.35207 14.200498,-16.35207 3.43757,0 7.629381,2.14025 10.422615,5.32157 2.782061,3.16859 3.444668,4.96858 3.426289,9.3076 -0.04243,10.01746 -9.754783,17.26826 -18.21479,13.59833 z"
     id="path17940"
     transform="scale(0.75)" />
  <path
     style="opacity:1;fill:#ffa71e;fill-opacity:1;fill-rule:nonzero;stroke:#000000;stroke-width:0.676281;stroke-linecap:square;stroke-opacity:1"
     d="m 305.34077,514.99462 c -13.75597,-1.10309 -32.95926,-4.84128 -33.61232,-6.54313 -0.43529,-1.13435 1.53724,-6.58309 2.7465,-7.58669 0.60399,-0.50126 3.26498,-0.028 9.24226,1.64374 16.41396,4.5907 38.15908,6.53662 57.1283,5.11228 12.26831,-0.92118 20.06094,-2.1876 32.11915,-5.21981 l 9.12559,-2.29477 1.18573,1.52333 c 1.86768,2.39946 2.98041,6.58292 1.92454,7.23549 -1.20094,0.74222 -15.91814,3.89654 -24.06658,5.15817 -7.95677,1.23194 -44.59017,1.86975 -55.79317,0.97139 z"
     id="path17968"
     transform="scale(0.75)" />
</svg>
