<?xml version="1.0" encoding="UTF-8" standalone="no"?>
<svg
   version="1.0"
   width="629.245pt"
   height="619.61206pt"
   viewBox="0 0 629.24497 619.61207"
   preserveAspectRatio="xMidYMid"
   id="svg26"
   sodipodi:docname="spaghettichef-icon-2.svg"
   inkscape:version="1.2.2 (b0a8486541, 2022-12-01)"
   inkscape:export-filename="spaghettichef-icon-2.svg"
   inkscape:export-xdpi="102.6642"
   inkscape:export-ydpi="102.6642"
   xmlns:inkscape="http://www.inkscape.org/namespaces/inkscape"
   xmlns:sodipodi="http://sodipodi.sourceforge.net/DTD/sodipodi-0.dtd"
   xmlns="http://www.w3.org/2000/svg"
   xmlns:svg="http://www.w3.org/2000/svg">
  <defs
     id="defs30" />
  <sodipodi:namedview
     id="namedview28"
     pagecolor="#ffffff"
     bordercolor="#000000"
     borderopacity="0.25"
     inkscape:showpageshadow="2"
     inkscape:pageopacity="0.0"
     inkscape:pagecheckerboard="0"
     inkscape:deskcolor="#d1d1d1"
     inkscape:document-units="pt"
     showgrid="false"
     inkscape:zoom="0.70710678"
     inkscape:cx="301.22749"
     inkscape:cy="495.68185"
     inkscape:window-width="1854"
     inkscape:window-height="1011"
     inkscape:window-x="0"
     inkscape:window-y="0"
     inkscape:window-maximized="1"
     inkscape:current-layer="g24547"
     showguides="false" />
  <metadata
     id="metadata2">
Created by potrace 1.16, written by Peter Selinger 2001-2019
</metadata>
  <ellipse
     style="opacity:0.748035;fill:#ff9919;fill-opacity:1;fill-rule:nonzero;stroke:#000000;stroke-width:0.803195;stroke-linecap:square;stroke-opacity:1"
     id="path19383"
     cx="312.72662"
     cy="330.69006"
     rx="86.788643"
     ry="42.190758" />
  <g
     transform="matrix(0.1,0,0,-0.1,53.004768,549.53491)"
     fill="#000000"
     stroke="none"
     id="g24">
    <path
       d="m 2485,4150 c -59,-12 -141,-47 -189,-79 -44,-30 -135,-123 -153,-156 -11,-19 -12,-19 -70,-1 -183,59 -378,12 -514,-123 -128,-129 -178,-306 -134,-476 50,-190 219,-338 421,-367 l 82,-12 11,-105 c 27,-256 35,-316 41,-324 3,-4 26,0 51,8 199,71 362,99 574,98 144,0 190,-5 298,-27 70,-14 167,-40 214,-56 48,-17 90,-27 93,-23 7,9 36,221 46,340 4,39 9,75 13,80 3,5 42,15 86,21 306,47 498,346 408,637 -53,170 -206,309 -380,346 -74,15 -191,6 -265,-20 l -57,-20 -20,33 c -34,54 -133,142 -199,175 -108,54 -243,74 -357,51 z m 289,-143 c 96,-45 173,-123 212,-212 16,-36 32,-65 36,-65 5,0 31,16 59,35 102,70 219,82 342,35 152,-57 247,-196 247,-360 0,-88 -21,-154 -70,-222 -145,-204 -458,-220 -634,-34 -21,23 -53,74 -72,114 -30,65 -36,72 -62,72 -16,0 -37,-9 -47,-20 -16,-18 -17,-25 -5,-63 40,-136 171,-268 314,-316 41,-14 52,-23 54,-43 3,-24 -24,-268 -31,-274 -1,-2 -27,3 -57,11 -299,80 -596,84 -885,10 -54,-14 -100,-24 -101,-22 -6,6 -34,289 -29,297 3,4 17,11 32,15 54,13 157,79 209,132 49,51 114,163 114,195 0,17 -73,78 -93,78 -25,0 -40,-28 -33,-62 12,-61 -76,-167 -179,-214 -156,-72 -327,-46 -450,67 -85,78 -132,196 -122,304 10,102 42,172 111,240 115,114 253,150 405,104 29,-9 46,-20 52,-36 10,-26 50,-48 73,-40 8,3 30,36 48,73 41,83 112,155 189,194 81,42 121,50 217,46 69,-3 94,-9 156,-39 z"
       id="path4" />
    <path
       d="m 4286,3091 c -4,-5 -7,-132 -9,-283 -2,-306 -1,-311 69,-364 29,-22 50,-29 107,-33 l 72,-6 3,-185 c 3,-216 -10,-305 -63,-418 -108,-230 -312,-367 -594,-397 l -64,-7 8,105 c 4,58 4,140 0,182 l -7,76 -42,24 c -23,14 -56,28 -73,31 -30,6 -31,5 -38,-35 -4,-27 -15,-47 -29,-56 -61,-40 -364,-87 -676,-105 -448,-25 -994,1 -1295,61 -135,27 -147,34 -164,92 -9,28 -20,47 -29,47 -32,0 -132,-53 -139,-74 -4,-11 -7,-94 -6,-183 l 1,-163 h -24 c -13,0 -70,9 -126,20 -188,36 -352,139 -449,282 -93,136 -119,242 -119,478 v 160 h 168 c 233,0 212,-31 212,319 0,337 10,313 -143,321 -100,5 -102,5 -99,29 2,14 -5,33 -19,47 -22,23 -27,24 -175,24 H 391 l -21,-27 c -14,-18 -19,-35 -15,-50 5,-23 5,-23 -98,-23 -156,0 -147,20 -147,-321 0,-349 -21,-319 218,-319 95,0 172,-3 173,-7 0,-5 3,-90 5,-190 5,-207 21,-288 77,-399 125,-248 355,-400 658,-435 l 106,-12 23,-74 c 53,-174 197,-404 327,-523 82,-75 185,-150 276,-199 42,-24 77,-46 77,-51 0,-4 -11,-43 -25,-85 -25,-76 -25,-79 -8,-97 20,-19 171,-59 298,-79 102,-15 405,-15 510,0 134,19 291,61 310,81 16,18 15,23 -14,99 -17,44 -31,84 -31,89 0,4 21,18 48,31 160,77 362,257 462,411 94,143 117,189 158,316 l 27,82 70,6 c 237,24 413,102 551,247 105,111 159,206 195,344 15,58 19,108 19,293 v 222 h 65 c 38,0 78,6 94,14 35,19 89,79 96,109 3,12 4,144 3,292 l -3,270 -29,3 c -16,2 -33,-1 -38,-6 -6,-6 -10,-109 -9,-257 1,-262 -5,-301 -47,-324 -12,-7 -84,-11 -176,-11 -149,0 -156,1 -183,24 l -28,24 -5,274 -5,273 -32,3 c -17,2 -34,-1 -37,-7 z M 588,2983 c -21,-2 -55,-2 -75,0 -21,2 -4,4 37,4 41,0 58,-2 38,-4 z m 307,-173 c 0,-69 -2,-75 -20,-72 -59,8 -86,5 -104,-12 -19,-18 -20,-17 -34,15 -30,71 -94,116 -177,126 -107,13 -220,-82 -220,-185 0,-43 -1,-43 -29,-37 -61,13 -103,-19 -69,-53 17,-17 64,-15 81,3 13,13 16,11 25,-13 25,-73 113,-132 195,-132 86,0 151,40 189,115 11,22 22,41 23,43 1,2 18,-5 38,-14 32,-15 37,-15 66,-1 40,20 43,14 39,-84 l -3,-74 -347,-3 -348,-2 v 230 230 l 348,-2 347,-3 z m -300,-44 c 85,-36 87,-168 4,-212 -104,-54 -212,64 -152,167 18,29 65,58 96,59 10,0 33,-6 52,-14 z m 947,-1165 c 212,-58 465,-82 933,-88 527,-7 869,20 1134,92 52,14 96,23 99,20 11,-11 -18,-234 -42,-328 -83,-317 -338,-609 -647,-743 -442,-190 -958,-82 -1286,269 -186,200 -303,475 -303,714 0,86 2,95 18,90 9,-2 52,-14 94,-26 z M 2235,394 c 188,-58 477,-58 679,2 27,8 55,14 61,14 10,0 39,-60 32,-67 -7,-7 -129,-34 -197,-43 -97,-14 -374,-14 -470,0 -112,16 -190,32 -195,40 -8,12 16,70 28,70 7,0 35,-7 62,-16 z"
       id="path6" />
    <path
       d="m 248,2739 c -47,-26 -1,-70 57,-55 24,6 36,39 18,49 -21,12 -60,15 -75,6 z"
       id="path8" />
    <path
       d="m 4415,3090 c -10,-16 -6,-523 4,-533 5,-5 21,-7 37,-5 l 29,3 v 270 270 l -32,3 c -17,2 -34,-2 -38,-8 z"
       id="path10" />
    <path
       d="m 4545,3087 c -3,-7 -4,-129 -3,-272 l 3,-260 h 35 35 l 3,264 c 2,205 -1,266 -10,273 -20,12 -58,9 -63,-5 z"
       id="path12" />
    <path
       d="m 4672,3078 c -4,-13 -5,-135 -2,-273 l 5,-250 29,-3 c 16,-2 32,2 37,10 5,7 9,128 9,269 0,225 -2,258 -16,263 -31,12 -55,6 -62,-16 z"
       id="path14" />
    <path
       d="m 2170,2403 c -8,-3 -30,-19 -47,-36 -28,-26 -33,-38 -33,-77 0,-52 18,-83 60,-105 66,-34 147,-1 170,70 10,30 9,41 -7,72 -28,58 -97,94 -143,76 z"
       id="path16" />
    <path
       d="m 2945,2400 c -27,-11 -71,-60 -80,-88 -18,-59 47,-142 111,-142 134,0 171,175 48,226 -37,16 -50,16 -79,4 z"
       id="path18" />
    <path
       d="m 2392,2058 c -57,-57 90,-155 218,-146 106,8 211,76 195,127 -8,27 -52,38 -79,21 -86,-55 -164,-60 -238,-17 -51,29 -77,34 -96,15 z"
       id="path20" />
    <path
       d="m 1750,1945 c -104,-16 -190,-44 -204,-67 -6,-10 -6,-33 0,-65 8,-42 14,-50 47,-66 41,-21 210,-50 382,-67 178,-18 794,-24 1019,-11 290,17 507,47 567,77 31,16 58,107 37,131 -27,33 -126,61 -276,78 -58,6 -73,-6 -53,-44 10,-18 6,-24 -30,-51 -23,-16 -38,-30 -33,-31 46,-4 145,5 169,16 27,11 37,10 66,-3 l 34,-15 -43,-13 c -140,-43 -912,-69 -1293,-44 -213,13 -403,34 -439,48 -25,9 -25,10 13,25 33,14 41,14 72,1 44,-18 190,-19 161,-1 -10,7 -30,21 -44,33 -22,18 -23,23 -12,43 10,19 10,25 -1,32 -18,11 -34,10 -139,-6 z"
       id="path22" />
  </g>
  <path
     style="opacity:0.93188;fill:#00a1f4;fill-opacity:1;fill-rule:nonzero;stroke:#000000;stroke-width:0.507211;stroke-linecap:square;stroke-opacity:1"
     d="m 300.57241,502.7799 c -23.82074,-2.33001 -44.7975,-10.76288 -62.6405,-25.18213 -5.74524,-4.64283 -14.62772,-13.91236 -19.12018,-19.95332 -9.99609,-13.44162 -17.28752,-29.1655 -20.49624,-44.19986 -2.05515,-9.62939 -2.83594,-24.5537 -1.36169,-26.02795 0.22298,-0.22299 3.64756,0.48434 7.61018,1.57183 16.05952,4.40732 31.64823,6.75257 53.88596,8.1069 16.77028,1.02135 49.28599,1.66034 68.75103,1.35109 40.33707,-0.64087 61.45061,-2.84546 86.07617,-8.98772 4.38116,-1.09278 8.57802,-1.98687 9.32635,-1.98687 h 1.36061 l -0.34537,4.43809 c -0.4463,5.73542 -2.1005,17.27589 -3.38843,23.63933 -3.78183,18.68539 -14.93787,38.53893 -30.28991,53.90458 -18.87043,18.88716 -41.35351,29.8558 -67.45594,32.90916 -5.74178,0.67166 -17.09836,0.88771 -21.91204,0.41687 z"
     id="path4063" />
  <path
     style="opacity:0.644656;fill:#ffffff;fill-opacity:1;fill-rule:nonzero;stroke:#000000;stroke-width:0.507211;stroke-linecap:square;stroke-opacity:1"
     d="m 260.32597,282.35247 c -1.17274,-6.673 -2.83473,-26.8448 -2.27221,-27.57803 0.24013,-0.31298 2.14963,-1.19385 4.24336,-1.95747 4.32915,-1.57892 11.02933,-5.62904 16.13015,-9.75031 5.24866,-4.24073 11.93983,-13.80767 14.11723,-20.18462 0.78478,-2.29839 0.79272,-2.65489 0.0847,-3.80408 -0.85314,-1.3848 -2.39645,-2.83394 -5.4472,-5.1148 -4.21885,-3.15419 -7.25267,-1.35056 -7.03938,4.18498 0.18869,4.89693 -1.72848,8.73473 -7.02715,14.06702 -7.68989,7.73868 -19.69061,12.26036 -30.6187,11.53662 -24.39193,-1.61538 -41.70901,-24.46983 -35.79784,-47.24469 1.89602,-7.30511 4.10445,-11.0059 10.13964,-16.99156 2.95338,-2.92914 6.67562,-6.09138 8.27164,-7.0272 9.05009,-5.3065 18.44308,-6.73738 28.68281,-4.36939 4.38706,1.01452 6.90233,2.41061 8.14857,4.52283 1.44973,2.45711 3.90154,3.88772 6.36693,3.71506 1.90905,-0.1337 2.05902,-0.28578 4.63781,-4.70306 5.06717,-8.6797 6.08669,-10.10303 10.15185,-14.17275 4.77067,-4.77603 10.34286,-8.29105 16.80483,-10.60075 4.30506,-1.53875 4.76941,-1.59803 12.33522,-1.57475 8.95342,0.0275 11.29903,0.5346 17.97267,3.88514 5.34868,2.68533 7.95958,4.49527 11.87518,8.23213 4.28815,4.09243 6.26339,6.87479 9.68255,13.6391 2.22091,4.39374 3.06772,5.62819 3.77592,5.50439 0.50212,-0.0878 2.47683,-1.16202 4.38825,-2.38721 8.52715,-5.46577 13.31221,-7.0372 21.28607,-6.99044 14.90891,0.0874 28.72181,8.71078 34.77554,21.7103 2.75753,5.92138 3.46758,9.3488 3.46758,16.73795 0,7.47726 -0.75065,11.02646 -3.47721,16.44067 -5.03926,10.00666 -13.2048,16.74579 -24.38697,20.12692 -3.90088,1.17951 -5.48175,1.37888 -11.13975,1.40492 -8.01476,0.0369 -11.59069,-0.77279 -18.7668,-4.24922 -9.08171,-4.39961 -13.97816,-9.64145 -19.68216,-21.07058 -1.2606,-2.52585 -2.65567,-4.89429 -3.10018,-5.2632 -1.39018,-1.15374 -5.65955,-0.43122 -7.4204,1.25578 -1.73077,1.65819 -1.85429,2.90403 -0.68007,6.85937 1.93221,6.50871 6.20059,13.17773 12.32259,19.25312 5.4285,5.38718 10.32369,8.6581 17.22702,11.51094 2.94891,1.21864 5.76766,2.58315 6.26389,3.03223 1.17677,1.06496 1.15994,3.22372 -0.11191,14.35465 -1.36619,11.95669 -1.57866,13.47235 -1.97943,14.1208 -0.23785,0.38488 -2.92082,-0.0555 -8.69265,-1.42674 -17.01292,-4.04188 -27.0087,-5.25331 -43.34613,-5.25331 -16.3111,0 -25.97082,1.1822 -42.88842,5.24892 -4.61894,1.11031 -8.53077,2.01876 -8.69293,2.01876 -0.16216,0 -0.4252,-0.7418 -0.58454,-1.64844 z"
     id="path7239"
     inkscape:label="path7239" />
  <path
     style="opacity:0.65413;fill:#007fe1;fill-opacity:1;fill-rule:nonzero;stroke:#000000;stroke-width:0.507211;stroke-linecap:square;stroke-opacity:1"
     d="m 73.342078,283.48506 v -22.98057 l 19.400804,0.33525 c 10.670448,0.18438 26.191088,0.33558 34.490318,0.33597 l 15.08951,7.2e-4 -0.007,5.95973 c -0.0101,8.70322 0.3105,8.21206 -5.28118,8.09034 -4.33347,-0.0943 -4.82924,-1.7e-4 -6.77391,1.28647 l -2.09824,1.38825 -1.02898,-2.32619 c -3.79582,-8.58112 -11.72584,-13.31042 -21.42057,-12.77478 -5.21503,0.28814 -9.408496,2.22584 -13.330249,6.15961 -3.383214,3.39357 -4.875792,6.56962 -5.516075,11.73762 l -0.514896,4.15594 -4.164777,-0.0458 c -4.728023,-0.052 -6.308758,0.773 -6.308758,3.29281 0,2.34868 2.178897,3.65148 5.687112,3.40044 1.813698,-0.12979 3.266514,-0.54134 3.884144,-1.10029 0.960052,-0.86883 1.037894,-0.7955 2.883417,2.71654 5.539045,10.54082 18.875652,14.63691 29.691362,9.11915 3.07713,-1.56983 6.18515,-4.94502 8.59219,-9.33078 1.64813,-3.00299 2.32527,-3.81685 2.96176,-3.55985 0.45383,0.18324 2.03638,0.80412 3.51678,1.37973 l 2.69164,1.04655 2.79831,-1.15983 c 2.159,-0.89486 2.93461,-1.02213 3.39489,-0.55708 0.41752,0.42184 0.5508,2.83387 0.44405,8.03604 -0.0839,4.08831 -0.19802,7.47733 -0.25361,7.53117 -0.0556,0.0539 -15.56465,0.26563 -34.46458,0.47067 l -34.363567,0.37277 z m 11.942504,-3.26517 c 2.491159,-2.49117 0.835632,-4.78612 -3.77197,-5.22885 -3.520172,-0.33825 -5.634481,0.85269 -5.634481,3.17377 0,2.2292 1.706312,3.25124 5.475569,3.27974 2.191449,0.0166 2.915102,-0.20889 3.930882,-1.22466 z"
     id="path10760" />
  <path
     style="opacity:1;fill:#ffff00;fill-opacity:1;fill-rule:nonzero;stroke:#000000;stroke-width:0.507211;stroke-linecap:square;stroke-opacity:1"
     d="m 102.72444,293.76471 c -7.123374,-3.60806 -8.639136,-12.98451 -2.932468,-18.14014 4.654478,-4.20505 8.577628,-4.67072 13.651908,-1.62047 8.012,4.81617 6.40402,17.90016 -2.5288,20.57649 -3.03244,0.90855 -5.21543,0.69109 -8.19064,-0.81588 z"
     id="path13039" />
  <path
     style="opacity:1;fill:#ffaf04;fill-opacity:0.965043;fill-rule:nonzero;stroke:#000000;stroke-width:0.507211;stroke-linecap:square;stroke-opacity:1"
     d="m 104.30438,293.85227 c -4.09095,-1.77464 -6.608249,-4.81432 -7.375961,-8.90657 -1.032816,-5.50539 4.836561,-12.26406 10.650371,-12.26406 2.57818,0 5.72204,1.60519 7.81696,3.99118 2.08655,2.37644 2.5835,3.72644 2.56972,6.9807 -0.0318,7.5131 -7.31609,12.9512 -13.66109,10.19875 z"
     id="path17940" />
  <path
     style="opacity:1;fill:#ffa71e;fill-opacity:1;fill-rule:nonzero;stroke:#000000;stroke-width:0.507211;stroke-linecap:square;stroke-opacity:1"
     d="m 292.96426,519.85893 c -10.31698,-0.82731 -24.71945,-3.63096 -25.20924,-4.90734 -0.32647,-0.85077 1.15293,-4.93732 2.05987,-5.69002 0.45299,-0.37595 2.44874,-0.021 6.9317,1.2328 12.31047,3.44303 28.61931,4.90247 42.84622,3.83421 9.20123,-0.69088 15.04571,-1.6407 24.08937,-3.91485 l 6.84419,-1.72108 0.88929,1.1425 c 1.40076,1.79959 2.23531,4.93719 1.44341,5.42661 -0.90071,0.55667 -11.93861,2.92241 -18.04994,3.86863 -5.96757,0.92396 -33.44262,1.40231 -41.84487,0.72854 z"
     id="path17968" />
  <g
     id="g24547"
     transform="translate(20.196084,70.917199)"
     style="display:inline">
    <path
       style="opacity:0.748035;fill:#c8ab37;fill-opacity:0.965043;fill-rule:nonzero;stroke:#000000;stroke-width:0.75;stroke-linecap:square;stroke-opacity:1"
       id="path24593"
       d="m 470.31027,160.38408 c -2.45241,-3.774 -5.31426,-7.25194 -7.85473,-10.96215 -2.62014,-4.14126 -4.72925,-8.55887 -6.54056,-13.1036 -1.26037,-3.35957 -2.15172,-6.80238 -2.63696,-10.35356 -0.57886,-3.76559 -0.0879,-7.5188 0.48555,-11.24653 0.52616,-3.15205 1.00334,-6.31327 1.19896,-9.50457 0.0964,-2.88972 0.10303,-5.781899 0.11825,-8.673014 0.0873,-2.182538 -0.39099,-4.327748 -0.66465,-6.481995 -0.37539,-2.36517 -1.10077,-4.62288 -2.00834,-6.830895 -1.28587,-4.412273 -3.98803,-7.424078 -7.12849,-10.659045 -6.69185,-4.284885 -13.51365,-8.752935 -21.09801,-11.268255 -4.96496,-1.646603 -10.19672,-2.506425 -15.32905,-3.427328 -1.45351,-0.220657 -2.90065,-0.4884 -4.36053,-0.66198 -0.81521,-0.09693 -11.87387,-1.087012 -12.13021,-1.111935 -6.24925,-0.607605 -12.48605,-1.338435 -18.73222,-1.97685 -13.41213,-1.713255 -26.71781,-4.140382 -39.90577,-7.106122 -12.55664,-3.04047 -25.13306,-6.011573 -37.66787,-9.144945 -1.98089,-0.500895 -3.96033,-1.007573 -5.94266,-1.5027 -2.63458,-0.658043 -6.71323,-1.703955 -9.45829,-2.169743 -5.13064,-0.870585 -10.38402,-1.224735 -15.5538,-1.786725 -8.73991,-1.140082 -17.5308,-1.68909 -26.31972,-2.273287 -4.93816,-0.141083 -9.87371,-0.797198 -14.81732,-0.803393 -0.79067,-7.5e-4 -7.17954,0.238133 -7.90093,0.264278 -6.4245,0.15756 -12.69069,1.307542 -18.87139,2.985697 -5.63419,1.557045 -10.80707,4.282463 -15.71798,7.394835 -4.9353,2.992035 -9.43569,6.579495 -13.87498,10.24509 -4.77024,4.148693 -9.23185,8.608553 -13.12902,13.587338 -3.26867,4.080547 -5.2696,8.865052 -7.217,13.659165 -2.26852,6.72513 -5.46468,13.034497 -8.74056,19.305795 -2.34894,4.605184 -4.9313,9.045794 -8.1426,13.099714 -3.15353,3.993 -7.1488,7.11154 -11.1751,10.15709 -4.51583,3.5644 -9.63671,6.02454 -14.97947,8.06217 -5.091446,1.60078 -10.077461,3.54521 -15.198799,5.04313 -4.086697,0.9758 -8.25384,1.55406 -12.42321,2.03469 -2.962747,0.34152 -4.17411,0.6192 -7.119367,0.0913 -1.15323,-0.20669 -2.25654,-0.63142 -3.38481,-0.94714 -1.1085,-0.46704 -4.293638,-2.11498 -3.3255,-1.40111 1.82121,1.34289 3.824115,2.47113 5.923065,3.31646 1.192177,0.48014 -2.140605,-1.42612 -3.163028,-2.20488 -2.905035,-2.21273 -5.293987,-4.761 -7.647052,-7.52989 -3.892456,-5.03637 -6.1233,-10.84238 -7.39235,-17.01443 -1.061948,-4.8772 -1.565283,-9.853827 -1.539509,-14.840622 0.191459,-4.064145 1.187225,-7.992652 2.466174,-11.831827 1.357458,-3.625523 3.206303,-7.023248 5.372845,-10.221833 2.052855,-3.26862 4.370475,-6.331695 7.006792,-9.14889 2.63544,-2.559547 5.73891,-4.620247 8.923523,-6.434017 5.94009,-2.535218 12.300645,-3.929408 18.545617,-5.50635 7.726328,-1.93119 15.334679,-4.293698 23.013549,-6.399015 5.01368,-1.280753 9.6886,-3.380565 14.2331,-5.811983 5.24778,-2.84097 9.72263,-6.643605 13.88764,-10.864132 3.28381,-3.391125 6.11437,-7.217333 8.64551,-11.194178 2.82557,-4.761727 5.18171,-9.7832095 7.51948,-14.796655 1.72874,-4.1079083 3.81577,-8.049972 6.27593,-11.7642158 2.36384,-3.3121422 5.09882,-6.3547242 8.09617,-9.1023222 3.41673,-2.861049 7.36716,-4.97634 11.53447,-6.505312 4.14622,-1.635756 8.53643,-2.258107 12.95108,-2.564951 3.73142,-0.145689 7.47035,-0.294968 11.20572,-0.256744 1.3071,0.01337 2.62365,-0.04909 3.91961,0.121691 3.47964,0.458546 5.52556,1.401471 8.83499,2.586096 -3.03663,-1.299279 12.0248,5.492095 8.83779,4.572884 -1.82175,-0.525441 -3.15714,-2.481271 -5.04798,-2.621439 -1.41184,-0.104661 2.30721,1.64222 3.43221,2.501661 1.56863,1.198353 4.14183,3.359838 5.69532,4.650162 3.68703,3.336709 7.37154,6.673943 11.10837,9.9548547 4.58739,2.494989 9.08217,5.1683123 13.76214,7.4849685 0.91684,0.4538475 13.51705,5.2059548 13.93441,5.3642648 7.27679,2.7601875 14.50268,5.501362 21.88177,7.978942 8.75387,2.75799 17.38555,5.976653 26.24599,8.395253 3.178,0.867487 7.20175,1.734022 10.40464,2.454862 1.68541,0.344543 3.37424,0.672795 5.05623,1.033628 2.63067,0.56436 5.2278,1.283085 7.86761,1.802947 4.25724,0.838388 8.5904,1.27821 12.89583,1.779165 8.70159,0.936578 17.47879,0.871725 26.22093,1.003598 7.60824,0.294502 15.132,-0.910035 22.24632,-3.566768 3.57027,-1.73202 7.76181,-3.36522 10.23804,-6.66498 0.36345,-0.484327 0.62808,-1.035465 0.94213,-1.55319 1.59642,-3.454335 2.38758,-7.251885 3.12383,-10.9732045 0.52476,-3.89427 -0.42402,-7.613805 -1.44657,-11.3356853 -1.18624,-3.633636 -2.58111,-7.2488872 -4.53767,-10.5417432 -2.31766,-2.99751 -4.86133,-6.016134 -7.86614,-8.365638 -1.06589,-0.833431 -2.2043,-1.569686 -3.30646,-2.354529 -11.14601,-6.656283 -22.30228,-13.533694 -34.27647,-18.632844 -4.93062,-1.806573 -9.79315,-3.947281 -14.85123,-5.394627 -2.03407,-0.58204 -8.68478,-2.090725 -10.46758,-2.503605 -5.38923,-1.051356 -10.67079,-2.752905 -16.098,-3.624515 -6.06567,-0.974146 -12.26915,-1.210846 -18.3915,-1.552405 -5.18104,-0.266501 -10.36484,-0.457479 -15.55125,-0.574528 -1.26847,-0.02863 -2.539,-0.149991 -3.80562,-0.07584 -2.10759,0.123392 -5.0232,0.775088 -7.10776,1.191356 -3.54948,0.678988 -6.59522,2.282934 -9.63428,4.145032 0,0 9.1813,5.937627 9.1813,5.937627 v 0 c 2.933,-1.739275 5.94687,-3.18982 9.31253,-3.90572 2.71533,-0.528516 4.11888,-0.895235 6.932,-1.042852 6.31168,-0.331205 12.67548,0.420719 18.9832,0.438078 4.80345,0.301482 7.89985,0.428219 12.6633,0.990798 7.37325,0.870805 14.57077,2.68688 21.78569,4.382824 8.65883,2.132951 17.20535,4.645837 25.40533,8.199655 3.91759,1.739673 7.70946,3.61347 11.49507,5.625864 1.51282,0.804198 2.84713,2.774444 4.52646,2.435027 0.0268,-0.0054 -11.26635,-6.620297 -0.0745,0.03406 1.03847,0.708531 2.11428,1.365219 3.1154,2.125593 2.98423,2.266576 5.51281,5.1985 7.89859,8.056579 2.10535,3.154285 3.45842,6.731986 4.74237,10.28555 1.01782,3.5540107 1.95997,7.106082 1.58927,10.8446617 -0.61471,3.6168023 -1.36071,7.2936323 -2.91445,10.6336523 -2.33365,3.913507 -6.49231,5.96829 -10.55835,7.733617 -7.05415,2.538683 -14.42884,3.611063 -21.93708,3.309878 -8.71702,-0.03255 -17.45308,-0.121935 -26.12751,-1.075905 -8.63492,-1.00566 -17.12029,-2.712188 -25.604,-4.597013 -12.26879,-2.841337 -24.30941,-6.50655 -36.2048,-10.6435645 -9.89187,-3.4595775 -19.74057,-7.0785893 -29.46816,-10.9811033 -2.24932,-0.9023842 -4.35141,-3.3372217 -6.71302,-2.792688 -1.86906,0.4309598 3.16811,2.1632108 4.75216,3.2448158 -3.87671,-3.2621273 -7.63456,-6.6585533 -11.36994,-10.081522 -3.00187,-2.483318 -5.96674,-5.250138 -9.26742,-7.336066 -7.09483,-4.483728 -14.25089,-8.981289 -21.9859,-12.291553 -3.72599,-1.240661 -5.27337,-1.983158 -9.1522,-2.415998 -1.29889,-0.144945 -2.61316,-0.06943 -3.92009,-0.07719 -3.81694,-0.02267 -7.63581,0.07355 -11.45129,0.161624 -4.50376,0.31725 -8.93868,1.132923 -13.15152,2.818639 -4.23886,1.677357 -8.34433,3.845242 -11.81637,6.83169 -2.99715,2.867646 -5.86524,5.903185 -8.18769,9.354521 -2.44224,3.789468 -4.7256,7.69508 -6.31567,11.9296227 -2.25046,4.999818 -4.61837,9.9559928 -7.44749,14.6599023 -2.52753,3.898785 -5.35115,7.620368 -8.55621,10.991055 -4.02606,4.191765 -8.40491,7.924575 -13.59611,10.631723 -4.5378,2.245957 -9.2068,4.21104 -14.0647,5.66397 -7.609084,2.207827 -15.201649,4.486523 -22.878124,6.450367 -6.429307,1.562183 -12.976252,2.84427 -19.063837,5.525055 -3.25614,1.898393 -6.37284,4.110391 -9.096405,6.722078 -2.624193,2.896103 -4.985861,6.001568 -7.082121,9.301845 -2.188139,3.301117 -4.075906,6.79014 -5.558622,10.467727 -1.257033,3.971265 -2.264411,8.01333 -2.498646,12.19326 -0.07558,5.047373 0.361558,10.11618 1.44281,15.053119 1.304585,6.31739 3.456753,12.30383 7.311037,17.56105 0.747022,0.92155 1.451193,1.87955 2.241067,2.76465 6.488292,7.27048 15.499902,12.3518 24.450755,15.81864 1.169737,0.26218 2.320267,0.63348 3.50922,0.78653 2.91711,0.37553 4.266472,0.0621 7.15449,-0.31568 4.232512,-0.55365 8.466015,-1.15049 12.63666,-2.07418 5.183446,-1.406 10.166846,-3.42173 15.256696,-5.13052 5.40637,-2.14756 10.67153,-4.58251 15.24536,-8.24752 4.10045,-3.09667 8.06009,-6.37793 11.31744,-10.38824 3.30941,-4.08224 5.7911,-8.66319 8.10481,-13.37312 3.21619,-6.324483 6.49435,-12.623523 8.88883,-19.323198 1.9899,-4.662533 3.88196,-9.396578 7.06347,-13.412775 3.81588,-4.940573 8.1987,-9.369743 12.96906,-13.399486 4.44372,-3.601732 8.93379,-7.141245 13.84008,-10.106924 4.85417,-3.026123 9.94736,-5.668493 15.50967,-7.141245 6.09335,-1.60101 12.28656,-2.65896 18.59757,-2.877743 7.54171,-0.22389 15.07344,0.04312 22.59933,0.5862 8.72552,0.615322 17.45591,1.198507 26.14795,2.201235 5.21208,0.589028 10.46651,1.058003 15.63535,1.973827 2.66055,0.471398 6.66826,1.433033 9.23341,2.048273 1.94947,0.46758 3.89514,0.950842 5.84271,1.42626 12.55763,3.101707 25.10983,6.231908 37.71057,9.154012 13.22741,3.088718 26.6795,5.061098 40.10385,7.090335 11.76783,1.119248 23.5498,2.23113 35.25573,3.880838 5.16111,0.94101 10.29972,1.8987 15.26225,3.659002 1.39398,0.494468 4.81089,3.006368 4.09323,1.713068 -0.95089,-1.713608 -3.43015,-1.943738 -4.92468,-3.211418 -1.02829,-0.87222 2.33983,1.34082 3.50974,2.011238 3.16692,3.116452 5.86572,5.818815 7.12872,10.183237 0.85465,2.134725 1.61154,4.261643 2.05257,6.526883 0.25198,2.1288 0.76477,4.235467 0.76845,6.382132 0.0169,2.872501 0.0389,5.746575 -0.0868,8.617239 -0.16847,3.17326 -0.50556,6.33271 -1.03449,9.4675 -0.60956,3.80622 -1.21786,7.63312 -0.70347,11.49352 0.47913,3.64504 1.30567,7.18489 2.59777,10.63461 1.82484,4.60686 3.94433,9.07978 6.49341,13.33495 2.41919,3.72574 5.36678,7.06906 7.64478,10.89174 0,0 10.23889,4.45829 10.23889,4.45829 z" />
    <path
       style="opacity:0.748035;fill:#c8ab37;fill-opacity:0.965043;fill-rule:nonzero;stroke:#000000;stroke-width:0.75;stroke-linecap:square;stroke-opacity:1"
       id="path24595"
       d="m 526.24393,159.57823 c 1.30631,-3.04313 3.32411,-5.67894 5.59679,-8.05679 2.23785,-1.81001 4.92472,-2.90185 7.56684,-3.97493 0.59712,-0.24252 1.17206,-0.5743 1.80602,-0.69033 1.04526,-0.19132 2.12008,-0.1482 3.18011,-0.2223 6.8926,-0.0115 13.86156,-0.0791 20.69436,0.95563 3.87867,0.9376 10.52391,4.99781 -5.62885,-3.78075 -0.3515,-0.19104 1.07088,0.74437 2.06681,1.96336 1.42956,2.49997 2.53315,5.17043 3.71375,7.79362 1.00638,2.48269 1.97622,4.97832 3.04153,7.43707 0.9776,2.49563 1.5881,5.12173 2.05639,7.75573 0.3115,2.18356 0.69194,4.36252 1.15773,6.51863 0.60802,2.5712 0.88172,5.20355 1.07831,7.83324 0.12452,2.98975 0.2631,5.98941 0.0635,8.97737 -0.36733,2.89589 -0.66219,5.79971 -1.10859,8.68494 -0.33435,2.88835 -0.96357,5.72203 -1.56246,8.56356 -0.90399,3.54435 -1.55211,7.14436 -2.33544,10.7154 -0.65709,2.75922 -1.3885,5.48326 -2.44353,8.12001 -1.08362,2.72251 -2.31923,5.37599 -3.67242,7.97472 -1.63106,3.39357 -3.36498,6.73578 -5.04345,10.10574 -1.27442,2.9162 -2.29053,5.94123 -3.19719,8.98936 -0.93719,2.93969 -1.76888,5.91504 -2.62364,8.88105 -1.44068,3.94959 -2.3073,8.04802 -3.2629,12.13232 -1.14714,4.59399 -1.97196,9.22974 -2.31768,13.94975 0.0145,3.48837 -0.47778,6.92697 -0.8874,10.37958 -0.53638,3.4813 -0.20262,6.95326 0.13655,10.43239 0.49276,5.66079 0.9384,11.31419 1.77779,16.93623 0.86765,6.1242 1.38609,12.29282 1.99581,18.44732 0.52139,4.83145 0.66396,9.69019 0.71806,14.54578 0.16074,4.12813 -0.088,8.22815 -0.96008,12.26556 -1.16242,3.97102 -2.17054,7.98456 -3.72504,11.82363 -2.34674,4.69301 -5.25039,9.09518 -8.35953,13.31401 -3.38407,4.18499 -7.13931,8.07674 -11.15238,11.66097 -5.6275,4.08187 -11.91483,7.22292 -18.0612,10.4546 -5.96653,3.11953 -12.06639,5.96848 -18.05979,9.0366 -4.42381,2.37296 -9.1307,4.10554 -13.71047,6.12929 -4.19096,2.06197 -8.39785,4.09125 -12.67471,5.96911 -4.29339,1.71383 -8.45637,3.74397 -12.68559,5.61153 -5.41026,2.65473 -10.8085,5.35065 -16.02464,8.37217 -4.28334,2.51025 -8.49145,5.11955 -12.64522,7.84063 -4.33437,2.5621 -8.31484,5.66362 -12.41367,8.57726 -5.13089,3.77592 -10.37799,7.40339 -15.735,10.85092 -4.68051,2.72483 -9.33147,5.4916 -14.12982,8.00459 -4.94228,2.45288 -9.85597,4.95949 -14.739,7.5281 -4.6104,2.24557 -9.15573,4.61844 -13.7921,6.80993 -5.62954,2.67896 -11.33112,5.17966 -17.12315,7.48895 -6.42035,2.20518 -12.80027,4.5238 -19.21619,6.74196 -5.95495,2.06792 -11.86512,4.24126 -17.89112,6.0975 -7.50476,2.28185 -15.29586,3.46801 -23.046,4.57798 -7.89217,1.20418 -15.86161,1.57088 -23.83029,1.83442 -11.45756,0.33837 -22.92005,0.49352 -34.38066,0.25268 -7.21571,-0.72589 -14.30707,-2.25591 -21.33583,-3.99368 -4.62124,-1.14253 -6.86606,-1.6699 -11.22258,-3.37002 -1.52172,-0.59385 -2.98896,-1.31884 -4.48344,-1.97826 -1.27981,-0.6493 -5.07197,-2.683 -3.83943,-1.9479 1.95279,1.16469 3.86802,2.45749 6.00341,3.23853 1.10155,0.4029 -1.91104,-1.36162 -2.83773,-2.08065 -2.55474,-1.98225 -4.8341,-4.2267 -7.13846,-6.48579 -3.4467,-3.62118 -6.8784,-7.25987 -10.21428,-10.98374 -3.28437,-3.69939 -6.66684,-7.32106 -10.20988,-10.77517 -2.5429,-2.25399 -4.45385,-5.06007 -6.53599,-7.71397 -2.58013,-3.09456 -5.28216,-6.09123 -7.96056,-9.10448 -2.98608,-3.53387 -6.375,-6.68871 -9.586,-10.01304 -1.16762,-1.20882 -2.23737,-2.51755 -3.48476,-3.64389 -1.83708,-1.65881 -3.83453,-3.13088 -5.75179,-4.69632 -7.79939,-5.94302 -16.164169,-11.09844 -23.608691,-17.50048 -4.347503,-3.7387 -5.502795,-5.00181 -9.45447,-8.8992 -6.61077,-6.66823 -11.589323,-14.67999 -16.2351,-22.7788 -3.832965,-6.63082 -6.948803,-13.62958 -10.25172,-20.52863 -3.163318,-6.05 -5.797646,-12.34115 -8.428005,-18.63366 -2.356291,-5.8323 -4.739154,-11.65752 -6.632511,-17.65888 -1.127361,-3.97348 -2.035274,-8.01899 -2.711175,-12.09403 -0.435128,-3.05508 -0.572452,-6.14079 -0.634066,-9.22266 0.03647,-2.1702 0.454871,-4.21032 1.223145,-6.22659 2.08796,-4.75422 5.225714,-8.93808 8.233216,-13.13592 2.735265,-3.96491 5.486555,-7.92119 8.160876,-11.92819 0.899429,-1.8895 2.599642,-3.49032 3.280702,-5.49287 0.48474,-1.4253 0.628222,-3.24494 0.812692,-4.70316 0.24303,-4.94806 -0.01702,-9.90375 -0.204967,-14.84966 -7.5e-4,-0.0211 -0.07806,-2.55322 -0.152685,-2.65765 -1.685018,-2.35818 -4.730049,-4.30167 -6.992839,-5.90244 -8.768926,-6.20345 0.180391,0.37699 -9.311916,-6.70204 -6.216182,-4.99984 -12.377545,-10.08887 -18.091107,-15.66245 -3.660554,-3.84049 -6.71275,-8.18813 -10.085283,-12.27147 -2.355601,-2.53837 -4.448855,-5.27091 -6.2958148,-8.19481 -2.3760727,-3.83788 -3.8437507,-8.15027 -5.306718,-12.39649 -1.4649337,-4.56325 -2.33032195,-9.29032 -2.9192917,-14.03833 -0.67167375,-4.1097 -1.07226675,-8.23737 -1.2394005,-12.39638 -0.0882053,-2.89528 -0.0813195,-5.79201 -0.0622125,-8.68814 0,0 -9.8673565,-5.01922 -9.8673565,-5.01922 v 0 c 0.05856,2.92967 0.126293,5.85913 0.197729,8.78851 0.103953,4.18636 0.227853,8.34738 1.1353302,12.45761 0.6124358,4.8049 1.3979145,9.60548 2.8259475,14.24371 1.463829,4.27753 2.882373,8.64004 5.1272078,12.58077 1.79087925,3.00203 3.8054287,5.83576 6.247764,8.35438 3.4918192,4.05732 6.6410855,8.38438 10.1635895,12.41619 5.812074,5.73979 12.225164,10.81136 18.533259,15.98979 7.448883,5.70581 2.047175,1.69817 9.136102,6.65877 1.329671,0.93045 2.638664,1.89016 3.964282,2.82639 0.950546,0.67132 2.06895,1.14653 2.864114,1.99619 0.604741,0.64619 -0.344513,2.02589 0.239306,2.64428 0.336788,4.89934 0.692113,9.81654 0.417014,14.72817 -0.193473,1.36904 -0.332748,2.94309 -0.794716,4.27708 -0.682271,1.97014 -2.223908,3.58213 -3.15116,5.42293 -2.697676,3.97262 -5.117231,8.1291 -7.929268,12.02483 -3.082283,4.26287 -6.393223,8.41037 -8.629006,13.20746 -1.014582,2.33902 -1.371325,4.06207 -1.455784,6.61562 0.06325,3.1419 0.243683,6.27984 0.658356,9.39749 0.581811,4.1654 1.633638,8.25538 2.764524,12.30226 1.865116,6.08314 4.347336,11.92372 6.736215,17.81741 2.598992,6.29056 5.106297,12.63646 8.310571,18.65246 3.437335,6.87832 6.540423,13.92623 10.310086,20.63627 4.765005,8.18991 9.766432,16.40419 16.456957,23.18328 4.814513,4.73041 9.668408,9.51132 15.022485,13.64298 5.875673,4.53417 12.373623,8.26197 18.168383,12.91353 1.82632,1.4816 3.73337,2.8689 5.47897,4.4448 1.24861,1.12725 2.32554,2.43118 3.48615,3.64884 3.10381,3.25642 6.26554,6.46294 9.24751,9.83235 2.68543,2.94393 5.17981,6.04807 7.85299,8.99788 2.17591,2.59064 3.92623,5.52863 6.43366,7.83833 3.74797,3.33633 7.1443,7.07385 10.51974,10.77765 3.21297,3.83048 6.70165,7.41969 10.1392,11.04898 1.5236,1.48535 2.99549,3.02564 4.57069,4.45616 6.31342,5.73351 13.8976,9.89229 21.57372,13.51785 1.48577,0.61662 2.94686,1.29645 4.45732,1.84986 4.28178,1.56882 6.57061,2.07366 11.07916,3.13342 7.15035,1.68074 14.3516,3.202 21.66732,3.96566 11.51126,0.0709 23.03244,0.0582 34.53944,-0.20491 8.03926,-0.34685 16.11906,-0.52211 24.07786,-1.80956 7.74491,-1.28246 15.53765,-2.50649 23.07626,-4.74169 6.07282,-1.803 11.99586,-4.00034 17.97223,-6.09389 6.40323,-2.21733 12.75624,-4.5703 19.13629,-6.85256 5.86956,-2.30583 11.69336,-4.71943 17.4071,-7.3912 4.60777,-2.23755 9.11108,-4.68222 13.72976,-6.8988 4.8873,-2.55951 9.80867,-5.05289 14.74464,-7.5169 4.84378,-2.47773 9.45047,-5.35669 14.12521,-8.13608 5.33564,-3.50885 10.63933,-7.06714 15.76826,-10.87491 4.1342,-2.86482 8.21103,-5.82078 12.47164,-8.49691 4.1358,-2.69186 8.3587,-5.2363 12.55842,-7.82521 5.19903,-2.98915 10.55215,-5.70066 15.97357,-8.26315 4.2643,-1.86374 8.50861,-3.77217 12.81373,-5.54142 4.21173,-1.96697 8.39349,-3.99686 12.58454,-6.00751 4.62613,-1.96615 9.29339,-3.8344 13.73801,-6.20162 5.93145,-3.11155 11.92028,-6.1063 17.88636,-9.15052 6.28157,-3.21065 12.6216,-6.47089 18.37035,-10.57271 4.10471,-3.59592 7.76567,-7.67937 11.28038,-11.84541 3.21384,-4.24926 5.98849,-8.84054 8.52172,-13.52364 1.71013,-3.85622 2.6358,-7.94688 3.86544,-11.9734 0.95573,-4.12248 1.25242,-8.29465 1.01905,-12.52475 -0.0797,-4.88712 -0.0887,-9.79098 -0.69125,-14.64923 -0.74071,-6.15869 -1.26042,-12.3341 -1.995,-18.49217 -0.81664,-5.60342 -1.43921,-11.22686 -1.81206,-16.87877 -0.24686,-3.37641 -0.46073,-6.7638 -0.0395,-10.13639 0.38466,-3.48611 0.82247,-6.9619 0.80431,-10.47754 0.31423,-4.66785 1.00357,-9.29101 2.14396,-13.83404 1.01238,-4.0363 1.95841,-8.0869 3.41167,-11.99422 0.87173,-2.95806 1.63566,-5.95092 2.64135,-8.86763 0.87542,-2.99963 1.80382,-5.99032 3.03727,-8.86599 1.62132,-3.39088 3.38933,-6.7045 5.10348,-10.046 1.33778,-2.64444 2.60563,-5.33253 3.72317,-8.07461 1.03755,-2.70203 1.8967,-5.46239 2.52948,-8.28807 0.69489,-3.58371 1.26711,-7.1994 2.31323,-10.70393 0.68659,-2.84714 1.23819,-5.72428 1.58686,-8.63289 0.46998,-2.91326 0.82966,-5.83417 1.14088,-8.76955 0.25444,-3.021 0.14823,-6.0558 0.071,-9.08427 -0.14994,-2.68004 -0.52616,-5.33972 -0.97791,-7.98467 -0.52538,-2.13314 -0.87017,-4.32527 -1.23911,-6.48817 -0.44796,-2.69781 -1.05283,-5.36496 -1.87639,-7.97385 -1.11632,-2.4754 -2.20542,-4.95918 -3.17419,-7.4966 -1.14126,-2.64513 -2.26506,-5.2951 -3.50129,-7.8965 -0.42135,-0.8018 -1.11073,-1.94171 -1.91637,-2.43114 -5.35715,-3.25451 -8.2519,-5.94314 -13.58338,-6.82605 -6.85708,-0.71618 -13.78526,-0.63413 -20.66993,-0.65026 -1.18291,0.11829 -2.38404,0.11661 -3.54873,0.35487 -0.63492,0.12989 -1.20232,0.48437 -1.79828,0.73895 -2.74597,1.17305 -5.54095,2.36169 -7.831,4.32576 -2.34721,2.45421 -4.38906,5.15409 -5.87443,8.22559 0,0 9.69709,5.57442 9.69709,5.57442 z" />
    <path
       style="opacity:0.748035;fill:#c8ab37;fill-opacity:0.965043;fill-rule:nonzero;stroke:#000000;stroke-width:0.75;stroke-linecap:square;stroke-opacity:1"
       id="path24597"
       d="m 494.50919,161.08479 c -1.43338,-2.75616 -2.71198,-5.56916 -3.58542,-8.55279 -0.7393,-2.35009 -1.40401,-4.71813 -1.75786,-7.15847 -0.22435,-1.8715 -0.22494,-3.75943 -0.22923,-5.64137 -0.14755,-2.50818 0.23789,-4.95119 0.86089,-7.37019 0.73355,-2.6119 2.35293,-4.80113 3.82381,-7.03219 1.57324,-2.01996 3.02955,-4.13028 4.67251,-6.09469 1.76023,-2.0752 3.56687,-4.1178 5.40426,-6.12855 2.41147,-2.8392 4.70204,-5.7654 6.9036,-8.76798 1.79352,-2.51172 3.56183,-5.026219 5.13843,-7.681871 1.40844,-2.042978 2.26068,-4.361138 3.1041,-6.67335 0.87835,-3.142088 0.92595,-6.45759 1.02076,-9.699938 -0.12868,-3.193245 -0.29656,-6.415365 -1.22259,-9.487335 -0.74746,-1.220167 -0.95203,-2.974912 -1.91713,-4.071825 -3.1071,-3.531457 -7.21323,-6.293355 -10.88414,-9.182865 -7.79698,-6.488197 -15.61762,-13.00134 -22.91475,-20.05818 -2.60245,-2.516752 -5.284,-5.39154 -7.7872,-8.029162 -3.81315,-4.086968 -7.35866,-8.429138 -10.33894,-13.16172 -2.01341,-3.637995 -3.63102,-7.4743655 -5.39759,-11.2336205 -1.19701,-2.4174195 -2.22915,-4.91173725 -3.40879,-7.336425 -0.79265,-1.4212972 -1.55168,-2.8573237 -2.15214,-4.3716907 -0.78479,-1.6087268 -1.19908,-3.2654168 -1.40114,-5.0353748 -0.15798,-1.177843 -0.0704,-0.606183 -0.25934,-1.715483 0,0 -10.07883,-4.905867 -10.07883,-4.905867 v 0 c 0.21491,1.079857 0.10587,0.529779 0.32702,1.650255 0.17184,1.828033 0.30526,3.648412 1.26462,5.267272 0.50742,1.5788163 1.19526,3.1142695 2.11882,4.4943625 1.20579,2.4483563 2.34379,4.9245518 3.53252,7.3845735 1.85119,3.7545075 3.48489,7.6150725 5.38324,11.347838 2.94716,4.969477 6.75941,9.366705 10.70084,13.569495 1.67181,1.729672 6.44679,6.69486 7.99764,8.18604 7.26523,6.985665 15.10238,13.364947 22.64729,20.038207 3.19165,2.502728 4.75049,3.68493 7.83679,6.259373 0.89952,0.750322 1.84653,1.453305 2.66127,2.29491 1.00349,1.036582 1.20282,2.727532 2.0139,3.88566 1.07243,2.929995 1.2619,6.069127 1.44371,9.16437 -0.0902,3.122062 -0.11087,6.309232 -0.95127,9.338595 -0.80021,2.254012 -1.59454,4.52331 -2.96621,6.508965 -1.54971,2.621309 -3.25308,5.138505 -4.98876,7.63977 -2.19904,2.957771 -4.48032,5.854491 -6.90451,8.631681 -1.85489,2.02217 -3.74855,4.0211 -5.47041,6.15713 -1.6369,2.02041 -3.20048,4.09582 -4.71875,6.20699 -1.52586,2.33887 -3.24878,4.61401 -4.01472,7.34514 -0.63411,2.48506 -1.1688,5.0074 -1.0507,7.58884 0.002,1.92635 -0.009,3.85725 0.17306,5.77701 0.30714,2.51158 0.96636,4.94621 1.7768,7.34176 0.807,3.00532 1.97562,5.86602 3.40384,8.63223 0,0 10.1907,4.68047 10.1907,4.68047 z" />
    <circle
       id="path24599"
       style="fill:#c8ab37;stroke:#000000;stroke-width:0.75"
       cx="184.57762"
       cy="379.32062"
       r="0.40047562" />
  </g>
</svg>
