<?xml version="1.0" standalone="no"?>
<!DOCTYPE svg PUBLIC "-//W3C//DTD SVG 20010904//EN"
 "http://www.w3.org/TR/2001/REC-SVG-20010904/DTD/svg10.dtd">
<svg version="1.0" xmlns="http://www.w3.org/2000/svg"
 width="476.894547pt" height="398.160316pt" viewBox="0 0 476.894547 398.160316"
 preserveAspectRatio="xMidYMid meet">
<metadata>
Created by potrace 1.16, written by Peter Selinger 2001-2019
</metadata>
<g transform="translate(-10.953914,415.921945) scale(0.100000,-0.100000)"
fill="#000000" stroke="none">
<path d="M2485 4150 c-59 -12 -141 -47 -189 -79 -44 -30 -135 -123 -153 -156
-11 -19 -12 -19 -70 -1 -183 59 -378 12 -514 -123 -128 -129 -178 -306 -134
-476 50 -190 219 -338 421 -367 l82 -12 11 -105 c27 -256 35 -316 41 -324 3
-4 26 0 51 8 199 71 362 99 574 98 144 0 190 -5 298 -27 70 -14 167 -40 214
-56 48 -17 90 -27 93 -23 7 9 36 221 46 340 4 39 9 75 13 80 3 5 42 15 86 21
306 47 498 346 408 637 -53 170 -206 309 -380 346 -74 15 -191 6 -265 -20
l-57 -20 -20 33 c-34 54 -133 142 -199 175 -108 54 -243 74 -357 51z m289
-143 c96 -45 173 -123 212 -212 16 -36 32 -65 36 -65 5 0 31 16 59 35 102 70
219 82 342 35 152 -57 247 -196 247 -360 0 -88 -21 -154 -70 -222 -145 -204
-458 -220 -634 -34 -21 23 -53 74 -72 114 -30 65 -36 72 -62 72 -16 0 -37 -9
-47 -20 -16 -18 -17 -25 -5 -63 40 -136 171 -268 314 -316 41 -14 52 -23 54
-43 3 -24 -24 -268 -31 -274 -1 -2 -27 3 -57 11 -299 80 -596 84 -885 10 -54
-14 -100 -24 -101 -22 -6 6 -34 289 -29 297 3 4 17 11 32 15 54 13 157 79 209
132 49 51 114 163 114 195 0 17 -73 78 -93 78 -25 0 -40 -28 -33 -62 12 -61
-76 -167 -179 -214 -156 -72 -327 -46 -450 67 -85 78 -132 196 -122 304 10
102 42 172 111 240 115 114 253 150 405 104 29 -9 46 -20 52 -36 10 -26 50
-48 73 -40 8 3 30 36 48 73 41 83 112 155 189 194 81 42 121 50 217 46 69 -3
94 -9 156 -39z"/>
<path d="M4286 3091 c-4 -5 -7 -132 -9 -283 -2 -306 -1 -311 69 -364 29 -22
50 -29 107 -33 l72 -6 3 -185 c3 -216 -10 -305 -63 -418 -108 -230 -312 -367
-594 -397 l-64 -7 8 105 c4 58 4 140 0 182 l-7 76 -42 24 c-23 14 -56 28 -73
31 -30 6 -31 5 -38 -35 -4 -27 -15 -47 -29 -56 -61 -40 -364 -87 -676 -105
-448 -25 -994 1 -1295 61 -135 27 -147 34 -164 92 -9 28 -20 47 -29 47 -32 0
-132 -53 -139 -74 -4 -11 -7 -94 -6 -183 l1 -163 -24 0 c-13 0 -70 9 -126 20
-188 36 -352 139 -449 282 -93 136 -119 242 -119 478 l0 160 168 0 c233 0 212
-31 212 319 0 337 10 313 -143 321 -100 5 -102 5 -99 29 2 14 -5 33 -19 47
-22 23 -27 24 -175 24 l-153 0 -21 -27 c-14 -18 -19 -35 -15 -50 5 -23 5 -23
-98 -23 -156 0 -147 20 -147 -321 0 -349 -21 -319 218 -319 95 0 172 -3 173
-7 0 -5 3 -90 5 -190 5 -207 21 -288 77 -399 125 -248 355 -400 658 -435 l106
-12 23 -74 c53 -174 197 -404 327 -523 82 -75 185 -150 276 -199 42 -24 77
-46 77 -51 0 -4 -11 -43 -25 -85 -25 -76 -25 -79 -8 -97 20 -19 171 -59 298
-79 102 -15 405 -15 510 0 134 19 291 61 310 81 16 18 15 23 -14 99 -17 44
-31 84 -31 89 0 4 21 18 48 31 160 77 362 257 462 411 94 143 117 189 158 316
l27 82 70 6 c237 24 413 102 551 247 105 111 159 206 195 344 15 58 19 108 19
293 l0 222 65 0 c38 0 78 6 94 14 35 19 89 79 96 109 3 12 4 144 3 292 l-3
270 -29 3 c-16 2 -33 -1 -38 -6 -6 -6 -10 -109 -9 -257 1 -262 -5 -301 -47
-324 -12 -7 -84 -11 -176 -11 -149 0 -156 1 -183 24 l-28 24 -5 274 -5 273
-32 3 c-17 2 -34 -1 -37 -7z m-3698 -108 c-21 -2 -55 -2 -75 0 -21 2 -4 4 37
4 41 0 58 -2 38 -4z m307 -173 c0 -69 -2 -75 -20 -72 -59 8 -86 5 -104 -12
-19 -18 -20 -17 -34 15 -30 71 -94 116 -177 126 -107 13 -220 -82 -220 -185 0
-43 -1 -43 -29 -37 -61 13 -103 -19 -69 -53 17 -17 64 -15 81 3 13 13 16 11
25 -13 25 -73 113 -132 195 -132 86 0 151 40 189 115 11 22 22 41 23 43 1 2
18 -5 38 -14 32 -15 37 -15 66 -1 40 20 43 14 39 -84 l-3 -74 -347 -3 -348 -2
0 230 0 230 348 -2 347 -3 0 -75z m-300 -44 c85 -36 87 -168 4 -212 -104 -54
-212 64 -152 167 18 29 65 58 96 59 10 0 33 -6 52 -14z m947 -1165 c212 -58
465 -82 933 -88 527 -7 869 20 1134 92 52 14 96 23 99 20 11 -11 -18 -234 -42
-328 -83 -317 -338 -609 -647 -743 -442 -190 -958 -82 -1286 269 -186 200
-303 475 -303 714 0 86 2 95 18 90 9 -2 52 -14 94 -26z m693 -1207 c188 -58
477 -58 679 2 27 8 55 14 61 14 10 0 39 -60 32 -67 -7 -7 -129 -34 -197 -43
-97 -14 -374 -14 -470 0 -112 16 -190 32 -195 40 -8 12 16 70 28 70 7 0 35 -7
62 -16z"/>
<path d="M248 2739 c-47 -26 -1 -70 57 -55 24 6 36 39 18 49 -21 12 -60 15
-75 6z"/>
<path d="M4415 3090 c-10 -16 -6 -523 4 -533 5 -5 21 -7 37 -5 l29 3 0 270 0
270 -32 3 c-17 2 -34 -2 -38 -8z"/>
<path d="M4545 3087 c-3 -7 -4 -129 -3 -272 l3 -260 35 0 35 0 3 264 c2 205
-1 266 -10 273 -20 12 -58 9 -63 -5z"/>
<path d="M4672 3078 c-4 -13 -5 -135 -2 -273 l5 -250 29 -3 c16 -2 32 2 37 10
5 7 9 128 9 269 0 225 -2 258 -16 263 -31 12 -55 6 -62 -16z"/>
<path d="M2170 2403 c-8 -3 -30 -19 -47 -36 -28 -26 -33 -38 -33 -77 0 -52 18
-83 60 -105 66 -34 147 -1 170 70 10 30 9 41 -7 72 -28 58 -97 94 -143 76z"/>
<path d="M2945 2400 c-27 -11 -71 -60 -80 -88 -18 -59 47 -142 111 -142 134 0
171 175 48 226 -37 16 -50 16 -79 4z"/>
<path d="M2392 2058 c-57 -57 90 -155 218 -146 106 8 211 76 195 127 -8 27
-52 38 -79 21 -86 -55 -164 -60 -238 -17 -51 29 -77 34 -96 15z"/>
<path d="M1750 1945 c-104 -16 -190 -44 -204 -67 -6 -10 -6 -33 0 -65 8 -42
14 -50 47 -66 41 -21 210 -50 382 -67 178 -18 794 -24 1019 -11 290 17 507 47
567 77 31 16 58 107 37 131 -27 33 -126 61 -276 78 -58 6 -73 -6 -53 -44 10
-18 6 -24 -30 -51 -23 -16 -38 -30 -33 -31 46 -4 145 5 169 16 27 11 37 10 66
-3 l34 -15 -43 -13 c-140 -43 -912 -69 -1293 -44 -213 13 -403 34 -439 48 -25
9 -25 10 13 25 33 14 41 14 72 1 44 -18 190 -19 161 -1 -10 7 -30 21 -44 33
-22 18 -23 23 -12 43 10 19 10 25 -1 32 -18 11 -34 10 -139 -6z"/>
</g>
</svg>
